<?xml version="1.0" encoding="UTF-8"?>
<svg id="Layer_1" data-name="Layer 1" xmlns="http://www.w3.org/2000/svg" xmlns:xlink="http://www.w3.org/1999/xlink" viewBox="0 0 1320 732">
  <defs>
    <style>
      .cls-1 {
        fill: url(#_69-2);
      }

      .cls-1, .cls-2, .cls-3, .cls-4, .cls-5, .cls-6, .cls-7, .cls-8, .cls-9, .cls-10, .cls-11, .cls-12, .cls-13, .cls-14, .cls-15, .cls-16, .cls-17, .cls-18, .cls-19, .cls-20, .cls-21, .cls-22, .cls-23, .cls-24, .cls-25, .cls-26, .cls-27, .cls-28, .cls-29, .cls-30, .cls-31, .cls-32, .cls-33, .cls-34, .cls-35, .cls-36, .cls-37, .cls-38, .cls-39, .cls-40, .cls-41, .cls-42, .cls-43, .cls-44, .cls-45, .cls-46 {
        stroke-width: 0px;
      }

      .cls-2 {
        fill: url(#linear-gradient);
      }

      .cls-3 {
        fill: #000;
      }

      .cls-4 {
        fill: #7d7d7d;
      }

      .cls-5 {
        fill: url(#_69-3);
      }

      .cls-6 {
        fill: url(#_32);
      }

      .cls-7 {
        fill: url(#linear-gradient-6);
      }

      .cls-47 {
        opacity: .6;
      }

      .cls-8 {
        fill: #ceba25;
      }

      .cls-9 {
        fill: #131313;
      }

      .cls-10 {
        fill: #00216a;
      }

      .cls-11 {
        fill: #4e289c;
      }

      .cls-12 {
        fill: #10171b;
      }

      .cls-13 {
        fill: url(#linear-gradient-11);
      }

      .cls-14 {
        fill: url(#linear-gradient-5);
      }

      .cls-15 {
        fill: url(#_68);
      }

      .cls-16 {
        fill: url(#_69-4);
      }

      .cls-17 {
        fill: #f7ee6d;
      }

      .cls-18 {
        fill: #fd6743;
      }

      .cls-19 {
        fill: url(#_69);
      }

      .cls-20 {
        fill: #fd7d5a;
      }

      .cls-21 {
        fill: #fdebeb;
      }

      .cls-22 {
        fill: #fc7261;
      }

      .cls-23 {
        fill: url(#linear-gradient-2);
      }

      .cls-24 {
        fill: url(#linear-gradient-7);
      }

      .cls-25 {
        fill: #919191;
      }

      .cls-26 {
        fill: url(#linear-gradient-3);
      }

      .cls-27 {
        fill: url(#linear-gradient-9);
      }

      .cls-28 {
        fill: #810900;
      }

      .cls-29 {
        fill: #a2a2a2;
      }

      .cls-30 {
        fill: #646466;
      }

      .cls-31 {
        fill: #fd655b;
      }

      .cls-32 {
        fill: url(#_åçûìßííûé_ãðàäèåíò_63);
      }

      .cls-33 {
        fill: #bd292a;
      }

      .cls-34 {
        fill: url(#linear-gradient-8);
      }

      .cls-35 {
        fill: #bfbfbf;
      }

      .cls-36 {
        fill: #fff;
      }

      .cls-37 {
        fill: #fdccc5;
      }

      .cls-38 {
        fill: #fd563c;
      }

      .cls-39 {
        fill: url(#linear-gradient-10);
      }

      .cls-40 {
        fill: #0845a6;
      }

      .cls-41 {
        fill: #bd2b38;
      }

      .cls-42 {
        fill: #d1323a;
      }

      .cls-43 {
        fill: url(#linear-gradient-4);
      }

      .cls-44 {
        fill: url(#_åçûìßííûé_ãðàäèåíò_63-2);
      }

      .cls-45 {
        fill: #d8edfd;
      }

      .cls-46 {
        fill: #efde3f;
      }
    </style>
    <linearGradient id="_åçûìßííûé_ãðàäèåíò_63" data-name="åçûìßííûé ãðàäèåíò 63" x1="-3182.32" y1="664.53" x2="-2973.7" y2="664.53" gradientTransform="translate(-1983.59) rotate(-180) scale(1 -1)" gradientUnits="userSpaceOnUse">
      <stop offset=".12" stop-color="#1555b8"/>
      <stop offset=".33" stop-color="#134fb3"/>
      <stop offset=".58" stop-color="#0e40a5"/>
      <stop offset=".85" stop-color="#06288f"/>
      <stop offset="1" stop-color="#011780"/>
    </linearGradient>
    <linearGradient id="_åçûìßííûé_ãðàäèåíò_63-2" data-name="åçûìßííûé ãðàäèåíò 63" x1="1125.87" y1="711.61" x2="958.23" y2="637.37" gradientTransform="matrix(1,0,0,1,0,0)" xlink:href="#_åçûìßííûé_ãðàäèåíò_63"/>
    <linearGradient id="_69" data-name="  69" x1="1241.82" y1="563.79" x2="1274.4" y2="577.41" gradientTransform="translate(-145.69)" gradientUnits="userSpaceOnUse">
      <stop offset="0" stop-color="#fd9475"/>
      <stop offset=".8" stop-color="#fd8255"/>
      <stop offset="1" stop-color="#fd6743"/>
    </linearGradient>
    <linearGradient id="_68" data-name="  68" x1="4477.96" y1="-1339.53" x2="4478.24" y2="-1373.62" gradientTransform="translate(-3085.62 2239.53) rotate(-5.47)" gradientUnits="userSpaceOnUse">
      <stop offset="0" stop-color="#fd9475"/>
      <stop offset=".51" stop-color="#fd8255"/>
      <stop offset="1" stop-color="#fd6743"/>
    </linearGradient>
    <linearGradient id="_69-2" data-name="  69" x1="4843.9" y1="-2081.98" x2="4901.12" y2="-2050.39" gradientTransform="translate(-3749.12 2212.78) rotate(3.1)" xlink:href="#_69"/>
    <linearGradient id="_69-3" data-name="  69" x1="-2862.31" y1="682.15" x2="-2875.09" y2="687.49" gradientTransform="translate(-1983.59) rotate(-180) scale(1 -1)" xlink:href="#_69"/>
    <linearGradient id="_69-4" data-name="  69" x1="1256.25" y1="607.97" x2="1294.46" y2="623.94" xlink:href="#_69"/>
    <linearGradient id="linear-gradient" x1="1038.24" y1="384.14" x2="1083.21" y2="384.14" gradientUnits="userSpaceOnUse">
      <stop offset="0" stop-color="#76c6a2"/>
      <stop offset="1" stop-color="#2db08a"/>
    </linearGradient>
    <linearGradient id="linear-gradient-2" x1="187.57" y1="529.87" x2="253.97" y2="529.87" xlink:href="#linear-gradient"/>
    <linearGradient id="linear-gradient-3" x1="187.75" y1="535.57" x2="252.98" y2="535.57" xlink:href="#linear-gradient"/>
    <linearGradient id="linear-gradient-4" x1="97.47" y1="546.72" x2="161.77" y2="546.72" xlink:href="#linear-gradient"/>
    <linearGradient id="linear-gradient-5" x1="169.5" y1="458.78" x2="220.58" y2="458.78" xlink:href="#linear-gradient"/>
    <linearGradient id="linear-gradient-6" x1="105.64" y1="502.38" x2="156.09" y2="502.38" xlink:href="#linear-gradient"/>
    <linearGradient id="linear-gradient-7" x1="105.64" y1="502.25" x2="156.78" y2="502.25" xlink:href="#linear-gradient"/>
    <linearGradient id="linear-gradient-8" x1="112.13" y1="587.6" x2="155.2" y2="587.6" xlink:href="#linear-gradient"/>
    <linearGradient id="linear-gradient-9" x1="111.98" y1="592.99" x2="154.95" y2="592.99" xlink:href="#linear-gradient"/>
    <linearGradient id="linear-gradient-10" x1="174.6" y1="570.58" x2="194.14" y2="570.58" xlink:href="#linear-gradient"/>
    <linearGradient id="linear-gradient-11" x1="194.45" y1="577.25" x2="216.28" y2="577.25" xlink:href="#linear-gradient"/>
    <linearGradient id="_32" data-name="  32" x1="139.77" y1="664.07" x2="209.43" y2="664.07" gradientUnits="userSpaceOnUse">
      <stop offset="0" stop-color="#e0323a"/>
      <stop offset="1" stop-color="#bd292a"/>
    </linearGradient>
  </defs>
  <path id="die" class="cls-45" d="M1150,267.84c0-105.05-72.48-200.39-184.34-239.83-55.65-19.62-116.46-30.55-180.24-30.86-113.93-.55-218.84,33-302.04,89.6-15.64,10.64-34.4,17.26-54.12,19.24C232.67,125.67,80.04,271.12,80.28,447.56c.15,111.17,62.44,210.61,157.84,273.44h906.78c8.57-7.4,1.7-16.28,5.1-23.02v-430.15Z"/>
  <g id="woman">
    <path class="cls-17" d="M1105.27,555.48s6.95-5.49,12.08-3.66c5.12,1.83,22.33,3.29,22.33,3.29l.02-.03c-.13-.07-.2-.11-.2-.11,51.97-79.79,86.69-92.21,86.69-92.21,0,0-26.14,87.4-42.45,106.07-1.58,8.99-4.34,20.49-8.55,24.7-7.32,7.32-15.37,13.18-30.38,9.52-12.26-2.99-39.53-17.2-42.09-26.35-2.56-9.15,2.56-21.23,2.56-21.23Z"/>
    <path class="cls-9" d="M1281.21,387.57c8.29,20.79,52.29,145.34,26.56,148.11-25.74,2.77-116.49-129.31-119.33-143.33-3.72-18.3,19.81-39.5,45.66-40.86,26.1-1.37,37.56,12.1,47.11,36.08Z"/>
    <path class="cls-32" d="M990.12,648.7l3.32,9.57,7.12,20.53,1.2,3.45,1.17,3.39,5.85,16.87,9.74,1.62,12.22,2.04,11.48-1.89,14.8-2.43.43-.07c.3.26.6.52.9.78.45.38.91.76,1.37,1.13.03.03.07.06.1.08.2.16.4.32.6.48,6.88,5.38,14.58,9.22,22.11,11.95.87.32,1.74.62,2.6.91,6.29,2.09,12.38,3.44,17.69,4.32,10.48,1.72,17.94,1.58,17.94,1.58h68.08l.39-1.39.05-.19,1.04-3.74.41-1.48,6.13-21.96.76-2.72,1.1-3.94-6.15-2.63-3.29-1.4-181.61-77.5-17.57,42.64Z"/>
    <g>
      <path class="cls-10" d="M1058.56,704.88c-.64,0-1.19-.48-1.27-1.13-.03-.24-2.99-23.93-9.11-44.44-.2-.68.18-1.39.86-1.6.68-.2,1.4.19,1.6.86,6.18,20.73,9.16,44.62,9.19,44.86.09.7-.41,1.35-1.12,1.43-.05,0-.11.01-.16.01Z"/>
      <path class="cls-11" d="M1058.56,704.95c-.68,0-1.26-.51-1.34-1.19-.03-.24-2.99-23.92-9.1-44.43-.21-.72.2-1.47.91-1.68.71-.21,1.47.2,1.68.91,6.2,20.79,9.17,44.63,9.2,44.87.04.36-.05.71-.28,1-.22.29-.54.47-.9.51-.06,0-.11.01-.17.01ZM1049.41,657.73c-.11,0-.23.02-.35.05-.64.19-1.01.87-.82,1.51,6.12,20.52,9.08,44.22,9.11,44.45.08.66.69,1.14,1.35,1.06.32-.04.61-.2.81-.46.2-.26.29-.57.25-.9-.03-.24-2.99-24.07-9.19-44.85-.16-.53-.64-.87-1.17-.87Z"/>
    </g>
    <g>
      <path class="cls-29" d="M803.64,714.82v6.37c0,.08.03.16.07.23.08.12.21.21.37.21h98.63c.15-.01.29-.09.36-.21.05-.07.08-.15.08-.24v-6.37c0-.24-.2-.44-.44-.44h-24.04s-11.78,0-11.78,0h-62.8c-.24,0-.44.21-.44.45Z"/>
      <path class="cls-42" d="M803.32,715.55c.12.24.22.45.31.62,0,0,.01.02.01.03.16.29.26.45.26.45,0,0,34.39.27,62.14.38,1.84,0,3.65.01,5.42.02.42,0,.84,0,1.25,0,.34,0,.68,0,1.02,0,13.42.03,24.06,0,26.37-.14.79-.05,1.44-.33,1.96-.71.05-.03.09-.07.13-.1.39-.31.7-.68.95-1.05.62-.93.84-1.85.84-1.85l1.18-4.89c.21-1.39.37-2.79.49-4.19.22-2.53.32-5.06.31-7.5,0-.25,0-.5,0-.75,0-.61-.02-1.21-.04-1.8-.02-.56-.04-1.11-.07-1.66,0-.21-.02-.42-.03-.62-.02-.44-.05-.86-.08-1.29-.17-2.41-.43-4.62-.73-6.51-1.67-.34-3.17-.03-4.87.64-.77.31-1.59.69-2.47,1.11-1.74.84-3.78,1.87-6.36,2.89-.49.19-.99.38-1.51.55-9.28,3.17-23.07,3.68-22.74-10.44,0-.28.08-3.48-2.93-3.93-2.45.66-7.43,2.2-13.04,4.96-1.37.67-2.78,1.42-4.2,2.25-.12.07-.25.14-.37.22-.87.51-1.7,1-2.49,1.47-1.49.88-2.86,1.67-4.15,2.39-1.1.62-2.13,1.19-3.12,1.73-1.5.8-2.89,1.52-4.25,2.17-5.88,2.82-11.08,4.49-21.18,7.55-13.45,4.07-9.66,14.58-8,18.01Z"/>
      <path class="cls-36" d="M905.64,689.41c.2,2.2.33,4.72.32,7.2-12.7,1.24-24.67,8.82-28.32,20.44-3.64,0-7.54-.02-11.59-.03,4.49-17.1,22.43-26.95,39.59-27.61Z"/>
      <path class="cls-36" d="M847.12,682.47l5.94,8.43c.72,1.09,2.23,1.4,3.36.7h0c1.12-.7,1.45-2.16.72-3.25l-5.94-8.43c-.72-1.09-2.23-1.4-3.36-.7h0c-1.12.7-1.45,2.16-.72,3.25Z"/>
      <path class="cls-36" d="M840.04,686.39l5.94,8.43c.72,1.09,2.23,1.4,3.36.7h0c1.12-.7,1.45-2.16.72-3.25l-5.94-8.43c-.72-1.09-2.23-1.4-3.36-.7h0c-1.12.7-1.45,2.16-.72,3.25Z"/>
      <path class="cls-36" d="M832.76,690.5l5.94,8.43c.72,1.09,2.23,1.4,3.36.7h0c1.12-.7,1.45-2.16.72-3.25l-5.94-8.43c-.72-1.09-2.23-1.4-3.36-.7h0c-1.12.7-1.45,2.16-.72,3.25Z"/>
    </g>
    <path class="cls-44" d="M877.03,664.53c.72,8.66,6.5,17.48,12.77,24.65.79.91,1.59,1.78,2.39,2.64,2.2,2.34,4.38,4.46,6.37,6.27,3.13,2.86,5.74,4.96,7.11,6.03.65.5,1.01.77,1.01.77,0,0,60.76-31.78,86.77-46.62,6.51-3.71,10.84-6.36,11.5-7.18.69-.87,1.37-1.45,2.02-1.84.86-.51,1.65-.67,2.31-.67,1.2.01,1.99.58,1.99.58,0,0,20.68,15.19,41.62,28.92,1.01.66,2.02,1.32,3.03,1.98,8.36,5.42,16.61,10.48,23.43,14.12,16.01,8.54,29.95,16.65,50.32,22.02,1.54.41,3.13.8,4.75,1.17,7.53,1.74,15.94,3.12,25.6,4.05,3.17.3,6.47.56,9.92.75,7.06.41,13.49.17,19.33-.56.48-.06.96-.12,1.43-.19,5.65-.8,10.74-2.07,15.31-3.65,1.42-.49,2.79-1.02,4.12-1.57,16.11-6.7,24.99-17.32,29.18-23.8,2.18-3.38,3.09-5.63,3.09-5.63l8.23-9.06-56.52-26.08-7.72-3.56s-14.79-6.35-35.45-15.19c-2.05-.88-4.16-1.78-6.32-2.7-2.25-.96-4.56-1.95-6.91-2.95-12.1-5.17-25.35-10.83-38.41-16.38-11.55-4.92-22.95-9.75-33.25-14.11-6.17-2.61-11.95-5.04-17.13-7.21-.2-.08-.39-.16-.59-.25-2.89-1.21-5.59-2.34-8.06-3.37-7.47-3.1-12.89-5.31-15.28-6.19-3.51-1.29-6.98-2.13-10.33-2.59-2.22-.31-4.39-.45-6.5-.46-8.93-.03-16.7,2.42-21.87,5.52-8.23,4.94-109.25,82.35-109.25,82.35Z"/>
    <path class="cls-46" d="M1149.33,636.26s48.36,49.66,81.62,55.63c14.27,2.56,21-3.2,25.99-15.01,13.91-32.94,43.54-95.28,44.55-134.63,1.26-49.4-9.12-60.51-28.06-77.81-18.94-17.29-47.51-.03-47.51-.03,0,0-34.36,16.83-46.12,79.88-9.06,48.59-30.47,91.96-30.47,91.96Z"/>
    <path class="cls-21" d="M1237.9,461.67s-10.98,1.83-24.52,28.55c-13.54,26.72-37.33,116.39-40.99,130.66-3.66,14.27,22.69,13.54,22.69,13.54,0,0,23.79-123.34,53.44-167.99l-10.61-4.76Z"/>
    <path class="cls-17" d="M1209.36,478.89c16.25-12.27,34.55-28.65,34.55-28.65l-5.42-8.06-16.75,4.59-21.33,28.57c-.41.54-.16,1.32.49,1.52l7.47,2.28.98-.24Z"/>
    <path class="cls-8" d="M1207.76,464.96c-.38,1.19-.85,2.33-1.35,3.44-.49,1.12-1.05,2.21-1.6,3.29-.56,1.08-1.16,2.13-1.78,3.18l-.47.78-.44.72c.06-.12-.05-.21-.12-.19l-.73.13c1.88-1.04,3.8-2.02,5.74-2.97,1.94-.94,3.91-1.84,5.95-2.62-1.68,1.4-3.42,2.67-5.19,3.91-1.78,1.22-3.57,2.42-5.4,3.56l-.3.19-.43-.05c-.63-.08-1.23-.51-1.52-1.09-.31-.57-.32-1.3-.01-1.9l.06-.11.03-.05.06-.1.12-.2.24-.39.48-.77c.65-1.03,1.32-2.05,2.03-3.04.71-.99,1.43-1.98,2.21-2.93.77-.96,1.57-1.89,2.46-2.77Z"/>
    <path class="cls-17" d="M1145.57,607.19s53.48,5.04,63.87,1.26c.93-.34,2.2-1.71,3.57-3.53.92-2.25,17.52-43.19,19.82-57.9,2.36-15.12,15.59-53.4,55.29-46.78,0,0,10.65,25.1-4,70.94-13.19,41.28-24.3,55.82-24.3,55.82,0,0-6.62,8.68-6.65,8.68-7.28,6.06-21.91,16.72-27.77,17.93-7.8,1.61-60.93-2.95-88.03-18.7,0,0-1.58-13.23,8.19-27.72Z"/>
    <path class="cls-8" d="M1142.18,554.04c2.49.88,4.72,1.95,6.94,3.16,2.2,1.22,4.3,2.61,6.27,4.16,1.94,1.59,3.72,3.38,5.25,5.34,1.5,2,2.64,4.23,3.42,6.55-1.05-2.22-2.42-4.24-4.07-6-1.69-1.72-3.58-3.21-5.59-4.5-2.04-1.26-4.18-2.34-6.39-3.24-2.19-.89-4.52-1.67-6.72-2.17h-.05c-.92-.22-1.51-1.14-1.3-2.06.21-.92,1.13-1.51,2.05-1.3.06.01.13.04.19.06Z"/>
    <g>
      <path class="cls-22" d="M1067.86,564.11s-4.37,7.06-3.03,9.08c1.34,2.02,5.38,3.7,9.08-2.35,3.7-6.05-2.69-8.07-6.05-6.72Z"/>
      <polygon class="cls-22" points="1085.01 562.43 1091.4 572.85 1108.54 576.89 1109.22 563.44 1100.14 553.69 1085.01 562.43"/>
      <path class="cls-19" d="M1087.36,575.88s.34,4.03,4.03,5.38,12.57.21,18.16,2.02c10.42,3.36,15.47-2.35,17.48-7.4,1.56-3.91-7.4-17.82-14.12-23.2-6.72-5.38-11.1-6.39-14.12-7.06-3.03-.67-8.74-2.69-13.11-1.68-4.37,1.01-10.42,8.74-10.42,8.74,0,0-2.02-2.02-5.38,0-3.36,2.02-7.4,14.12-6.72,16.14.67,2.02,5.38,4.03,7.4.34,0,0,4.71,7.4,9.41-1.34,0,0-2.02,4.71,0,6.39,2.02,1.68,7.4,3.36,11.1-4.37,3.7-7.73,5.38-7.73,5.38-7.73,0,0,2.02-2.02,5.04,0,3.03,2.02,4.71,7.73,4.71,7.73,0,0-7.4,1.68-10.42,1.68s-8.07-.67-8.41,4.37Z"/>
      <path class="cls-31" d="M1079.63,567.75c-.2,0-.4-.05-.59-.15-.63-.33-.87-1.1-.55-1.73,1.43-2.74,8.72-16.54,11.86-18.63,3.38-2.25,6.15-2.24,8.63-1.88.7.1,1.19.75,1.09,1.45-.1.7-.75,1.19-1.45,1.09-1.92-.27-4.04-.39-6.84,1.48-2,1.34-7.81,11.55-11.01,17.68-.23.44-.68.69-1.14.69Z"/>
      <path class="cls-31" d="M1069.88,569.43s-.05,0-.08,0c-.71-.04-1.25-.65-1.2-1.36.35-5.58,4.98-14.9,5.18-15.29.32-.63,1.09-.89,1.72-.57.63.32.89,1.09.57,1.72-.05.09-4.59,9.25-4.91,14.3-.04.68-.61,1.2-1.28,1.2Z"/>
    </g>
    <g>
      <path class="cls-41" d="M965.11,691.96s.93-6.56,19.38-11.5c18.46-4.94,57.41,2.45,62.46,5.16,5.05,2.71,12.9,9.54,12.71,15.76-.19,6.22-83.51.8-83.51.8l-11.05-10.22Z"/>
      <path class="cls-30" d="M1034.45,689.14c-1.12.03-2.23.09-3.31.19-3.23.3-6.47-.22-9.45-1.44-6.46-2.64-17.1-6.21-25.89-6-20.71.5-31.87,4.58-33.74,14.01-1.92,9.66,18.34,23.42,39.06,22.92,7.01-.17,29.36.32,35.46.17,14.94-.36,24.18-5.07,23.97-13.49-.2-8.41-11.16-16.72-26.1-16.37Z"/>
      <path class="cls-4" d="M962.57,700.33c-.14,5.24,5.65,11.43,14.19,15.86.2.11.4.21.61.31,4.43,2.23,9.55,3.98,14.95,4.91,3.08.53,6.25.79,9.43.72,7.01-.17,29.36.32,35.46.17,3.33-.08,6.39-.38,9.11-.89,4.71-.88,8.45-2.38,10.99-4.47.3-.24.57-.49.84-.75,2.04-2,3.1-4.47,3.03-7.38-.03-1.12-.24-2.23-.63-3.32-.2-.56-.44-1.11-.73-1.65-.03-.05-.05-.11-.08-.16-.25-.47-.54-.92-.85-1.37-.6-.86-1.32-1.7-2.14-2.49-4.58-4.44-12.34-7.59-21.66-7.36-1.12.03-2.23.09-3.31.19-3.23.3-6.46-.22-9.45-1.44-4.92-2.01-12.28-4.57-19.39-5.57-2.22-.32-4.41-.48-6.5-.43-15.28.37-25.36,2.68-30.34,7.66-1.77,1.77-2.9,3.87-3.39,6.34-.07.37-.12.74-.12,1.12Z"/>
    </g>
    <g>
      <path class="cls-10" d="M1006.28,648.58c-.59-1.02-.95-1.89-1.33-2.84-.38-.93-.69-1.88-.98-2.82-.58-1.89-1.01-3.81-1.34-5.73-.32-1.92-.55-3.85-.67-5.78-.08-.96-.08-1.93-.13-2.89v-2.88s.43,2.84.43,2.84c.19.94.33,1.88.55,2.81.4,1.86.9,3.69,1.49,5.49.6,1.79,1.28,3.54,2.08,5.22.4.84.82,1.66,1.28,2.45.45.77.97,1.6,1.44,2.18l.02.03c.6.74.48,1.82-.26,2.42-.74.6-1.82.48-2.42-.26-.05-.07-.11-.15-.15-.22Z"/>
      <path class="cls-11" d="M1007.78,649.52c-.06,0-.13,0-.2-.01-.47-.05-.9-.28-1.2-.66-.05-.07-.11-.15-.16-.23h0c-.58-1.01-.93-1.85-1.34-2.85-.33-.82-.63-1.69-.98-2.83-.53-1.76-.97-3.63-1.35-5.74-.32-1.93-.55-3.87-.67-5.79-.05-.63-.07-1.26-.09-1.88-.01-.34-.02-.67-.04-1.01v-2.88s.14,0,.14,0l.42,2.84c.07.33.13.66.19,1,.11.59.22,1.21.36,1.81.4,1.83.9,3.68,1.49,5.48.65,1.94,1.33,3.64,2.08,5.21.47.99.88,1.76,1.28,2.44.52.9,1.03,1.67,1.43,2.17l.02.03c.3.37.44.84.38,1.31s-.28.9-.66,1.2c-.32.26-.71.4-1.12.4ZM1006.34,648.55c.04.08.1.15.15.21.28.34.67.56,1.11.61.44.05.87-.08,1.21-.36.34-.28.56-.67.61-1.11.05-.44-.08-.87-.36-1.21l-.02-.03c-.41-.51-.92-1.28-1.44-2.19-.4-.68-.81-1.46-1.29-2.45-.75-1.57-1.43-3.28-2.08-5.22-.59-1.81-1.09-3.66-1.49-5.49-.14-.6-.25-1.22-.36-1.81-.06-.33-.12-.67-.19-1l-.29-1.92v1.95c.01.33.02.67.03,1.01.02.62.04,1.25.09,1.87.12,1.91.35,3.85.67,5.77.37,2.1.81,3.97,1.34,5.72.35,1.13.65,2,.98,2.82.4.99.75,1.83,1.33,2.83Z"/>
    </g>
    <g>
      <path class="cls-10" d="M914.36,699.39c-.2,0-.4-.05-.58-.14-19.61-9.99-29.84-36.53-30.26-37.66-.25-.66.08-1.4.75-1.66.66-.25,1.4.08,1.66.75.1.27,10.31,26.74,29.03,36.28.63.32.88,1.1.56,1.73-.23.45-.68.7-1.15.7Z"/>
      <path class="cls-11" d="M914.36,699.46c-.21,0-.42-.05-.61-.15-19.64-10.01-29.87-36.57-30.3-37.69-.13-.34-.12-.71.03-1.04.15-.33.42-.58.75-.71.7-.26,1.48.09,1.75.79.1.27,10.26,26.69,28.99,36.24.32.16.56.44.67.79.11.34.08.71-.08,1.03-.23.46-.69.74-1.21.74ZM884.71,659.93c-.14,0-.29.03-.43.08-.3.11-.54.34-.68.64-.13.3-.14.63-.03.93.43,1.12,10.64,27.64,30.23,37.62.17.09.36.13.55.13.46,0,.87-.25,1.08-.66.15-.29.17-.62.07-.93-.1-.31-.31-.56-.6-.71-18.79-9.57-28.96-36.05-29.06-36.31-.18-.49-.65-.78-1.14-.78Z"/>
    </g>
    <g>
      <path class="cls-10" d="M1206.79,700.13c-.18,0-.35-.04-.52-.11-21.96-9.84-17.97-26.93-17.92-27.1.17-.69.87-1.11,1.56-.93.69.17,1.11.87.94,1.55-.15.63-3.44,15.21,16.48,24.14.65.29.94,1.05.65,1.7-.21.48-.68.76-1.17.76Z"/>
      <path class="cls-11" d="M1206.79,700.2c-.19,0-.38-.04-.55-.12-22.01-9.87-18-27.01-17.96-27.18.18-.72.92-1.16,1.64-.98.72.18,1.16.92.99,1.64-.15.61-3.42,15.15,16.44,24.06.68.31.99,1.11.68,1.79-.22.49-.7.8-1.24.8ZM1189.59,672.01c-.54,0-1.04.37-1.18.92-.04.17-4.02,17.2,17.88,27.02.16.07.32.11.5.11.48,0,.91-.28,1.11-.72.13-.3.14-.63.03-.93-.12-.3-.34-.54-.64-.68-19.97-8.95-16.67-23.6-16.52-24.22.16-.65-.24-1.31-.88-1.47-.1-.02-.2-.04-.29-.04Z"/>
    </g>
    <path class="cls-40" d="M1207.43,407.27s-.05.01-.08.02l-23.14,3.23c-.37.05-.72-.21-.77-.58-.05-.37.21-.72.58-.77l23.14-3.23c.37-.05.72.21.77.58.05.35-.17.67-.5.75Z"/>
    <path class="cls-15" d="M1249.98,420.64l9.48,39.93s-.92,14.08-13.21,18.25c-13.32,4.51-15.58.34-15.58.34l-6.32-30.59,25.63-27.93Z"/>
    <path class="cls-18" d="M1251.91,428.77l-1.93-8.13-25.63,27.93,2.05,10.99c15.01-1.71,22.29-16.32,25.51-30.79Z"/>
    <path class="cls-1" d="M1257.32,412.83c-1.24,22.97-21.67,40.95-39.65,39.98-17.98-.97-25.28-20.49-25.46-43.5-.26-32.46,18.9-41.91,36.88-40.93,17.98.97,29.47,21.48,28.23,44.46Z"/>
    <ellipse class="cls-20" cx="1258.96" cy="417.37" rx="14.13" ry="9.83" transform="translate(386.9 1416.71) rotate(-67.23)"/>
    <path class="cls-37" d="M1259.2,430.27c-.13,2.33-2.12,4.12-4.45,3.99-2.33-.13-4.12-2.12-3.99-4.45.13-2.33,2.12-4.12,4.45-3.99,2.33.13,4.12,2.12,3.99,4.45Z"/>
    <path class="cls-38" d="M1210.27,425.76c-.05.01-.1.02-.16.02-2.93.05-4.85-.71-5.71-2.25-1.51-2.73,1.07-6.77,1.18-6.94.2-.31.62-.4.94-.2.32.2.4.63.2.94-.63.97-2.06,3.87-1.13,5.54.59,1.07,2.1,1.59,4.49,1.55.38,0,.69.29.69.67,0,.32-.21.59-.51.67Z"/>
    <path class="cls-9" d="M1221.34,412.22h0c-1.37-.21-2.31-1.51-2.1-2.87l.53-3.38c.21-1.37,1.51-2.31,2.87-2.1h0c1.37.21,2.31,1.51,2.1,2.87l-.53,3.38c-.21,1.37-1.51,2.31-2.87,2.1Z"/>
    <path class="cls-9" d="M1198.34,411.24h0c-1.27-.12-2.21-1.26-2.09-2.52l.3-3.21c.12-1.27,1.26-2.21,2.52-2.09h0c1.27.12,2.21,1.26,2.09,2.52l-.3,3.21c-.12,1.27-1.26,2.21-2.52,2.09Z"/>
    <path class="cls-9" d="M1231.48,402.05c-.26.07-.54-.02-.71-.25-4.36-5.77-11.6-2.94-11.67-2.91-.35.14-.75-.03-.89-.38-.14-.35.03-.75.38-.89.08-.03,8.29-3.25,13.27,3.35.23.3.17.73-.13.95-.07.06-.16.09-.24.12Z"/>
    <path class="cls-9" d="M1205.38,399.79c-.15.04-.31.03-.46-.04-.25-.11-6.06-2.76-8.92,1.43-.21.31-.64.39-.95.18-.31-.21-.39-.64-.18-.95,3.51-5.14,10.55-1.92,10.62-1.89.34.16.49.56.33.9-.09.19-.26.32-.45.37Z"/>
    <g>
      <path class="cls-28" d="M1204.35,438.1c-1.5-.84-3.21-2.06-2.79-3.76.41-1.7,2-1.83,3.69-1.6,2.91.41,8.79.44,13.34-.42,2.14-.4,3.69.12,4.24,1.77.55,1.66-.85,2.9-2.49,3.75-3.76,1.97-11,3.03-16,.25Z"/>
      <path class="cls-33" d="M1207.17,438.86c4.47.86,9.48,1.24,13.3-1.43,1.42-.99,2.51-2.24,2.03-3.66-5.61-.48-11.74,1.08-15.33,5.09Z"/>
      <path class="cls-38" d="M1204.5,438.55c3.47,1.65,7.96,1.91,12.19.81.09-.02.17-.05.26-.07,1.19-.32,2.36-.75,3.47-1.29,1.89-.91,3.5-2.58,2.85-4.26-.81-2.1-2.83-2.02-4.69-1.67-2.16.4-4.19.64-6.1.72-2.51.11-4.82-.07-6.98-.51-3.1-.65-4.07.45-4.35,1.48-.47,1.76,1.63,3.98,3.34,4.79ZM1202.04,433.99c.13-.47.46-.78,1-.92.55-.14,1.31-.11,2.28.09,2.39.5,4.96.67,7.76.5,1.79-.1,3.67-.34,5.67-.71,2.25-.42,3.09-.03,3.54.79h0c.05.1.1.21.14.32.44,1.13-.93,2.41-2.4,3.12-1.16.56-2.38,1-3.62,1.32-3.05.78-6.23.83-9.02.12-.88-.22-1.71-.52-2.5-.89-1.37-.65-3.18-2.51-2.86-3.74Z"/>
    </g>
    <path class="cls-9" d="M1253.69,374.44l-11.42-10.12-19.27-3.72.33-1.75-7.85,2.09-17.95,10.05-7.82,9.48s-2.14,10.52,9.42,7.19c5.48-1.58,10.79-5.99,14.87-10.2,2.82-2.91,7.71-1.89,9.13,1.9,2.8,7.44,7.37,16.18,14.46,21.33,14.13,10.26,24.74,1.29,24.74,1.29l-8.65-27.53Z"/>
    <path class="cls-9" d="M1245.48,397.93s8.61,14.04.13,24.59c0,0,12.17-3.09,12.42-23.91.18-15.2-12.56-.68-12.56-.68Z"/>
    <g>
      <path class="cls-40" d="M1193.53,424.6c.13.01.27.02.4.02,1.05.04,2.08-.08,3.06-.33,2.7-.7,5.05-2.45,6.64-4.83,1.25-1.88,2.03-4.16,2.12-6.64,0-.09,0-.18,0-.26.01-.56-.01-1.12-.07-1.66-.12-1.14-.4-2.23-.79-3.26-.17-.45-.37-.87-.59-1.29h0c-1.59-3.03-4.34-5.26-7.63-5.96-.52-.11-1.06-.18-1.61-.21-.07,0-.13-.01-.2-.01-.73-.03-1.46.02-2.17.14h0c-.2.03-.4.07-.6.12-2,.46-3.86,1.49-5.4,3.04-2.22,2.23-3.51,5.25-3.63,8.51-.25,6.6,4.42,12.18,10.49,12.64ZM1184.41,412.01c.02-.52.07-1.04.16-1.55.08-.48.19-.95.33-1.42.53-1.75,1.46-3.34,2.74-4.63,1.29-1.29,2.82-2.18,4.48-2.61.13-.03.27-.07.41-.1.08-.01.16-.03.24-.05.67-.12,1.35-.17,2.04-.15,3.41.13,6.36,2.11,8.05,5.03.24.41.45.84.64,1.28.63,1.5.96,3.18.89,4.94-.08,2-.64,3.85-1.57,5.43-1.86,3.16-5.15,5.21-8.83,5.07-.23,0-.46-.03-.69-.06h0c-5.17-.58-9.11-5.46-8.89-11.2Z"/>
      <path class="cls-40" d="M1214.01,421.63c2.14,2.49,5.05,3.93,8.21,4.05,1.09.04,2.16-.08,3.17-.34,5.02-1.3,8.87-6.09,9.09-11.91.05-1.24-.07-2.46-.34-3.62-.1-.45-.23-.88-.38-1.31-.53-1.52-1.33-2.93-2.37-4.16-2.13-2.49-5.05-3.93-8.21-4.05-6.02-.23-11.19,4.48-12.12,10.75-.07.49-.12.99-.14,1.5,0,.06,0,.12,0,.19-.09,3.31,1.01,6.47,3.09,8.91ZM1212.28,412.59c.2-5.21,3.61-9.49,8.07-10.64.89-.23,1.82-.34,2.78-.3,2.77.11,5.34,1.38,7.22,3.58,1.9,2.22,2.88,5.12,2.77,8.15-.24,6.25-5.1,11.16-10.85,10.95-2.77-.11-5.34-1.38-7.23-3.58-1.9-2.22-2.88-5.12-2.77-8.15Z"/>
      <path class="cls-40" d="M1211.6,412.94c-.23.06-.49,0-.66-.19-.83-.87-1.7-1.31-2.6-1.32-1.42-.02-2.51,1.06-2.52,1.07-.26.27-.69.27-.96,0-.27-.26-.27-.69,0-.96.06-.06,1.48-1.49,3.49-1.48,1.29,0,2.5.6,3.59,1.74.26.27.25.7-.02.96-.09.08-.19.14-.3.17Z"/>
      <path class="cls-40" d="M1257.08,405.57s-.03,0-.05.01l-23.31,4.31c-.37.07-.72-.18-.79-.55-.07-.37.19-.73.55-.79l23.31-4.31c.37-.07.72.18.79.55.07.35-.16.69-.5.78Z"/>
    </g>
    <g>
      <path class="cls-17" d="M1229.9,482.38s18.05-12.45,27.18-28.95c.86-1.56,3.39.8,3.91,1.77,0,0,4.2,2.65,9.72,8.4,0,0-1.24,5.01-6.41,11.71-4.65,6.03-19.51,17.03-25.84,21.59-1.31.95-3.16.16-3.39-1.44-.56-3.89-4.31-8.07-5.17-13.08Z"/>
      <path class="cls-8" d="M1271.25,461.01c-.66,2.23.34,5.15-.8,7.18-1.17,2.03-1.65,4.26-3.13,6.13-1.47,1.84-3.1,3.53-4.75,5.18-1.69,1.61-3.42,3.17-5.19,4.68-1.79,1.49-3.6,2.93-5.44,4.34-1.87,1.37-3.72,2.77-5.64,4.06-1.9,1.32-3.84,2.59-5.79,3.84l-1.47.92-.37.23c-.15.08-.29.17-.45.23-.3.14-.64.2-.97.21-.67.01-1.32-.25-1.76-.7-.45-.45-.65-1.06-.68-1.63.27,1.15,1.4,1.89,2.37,1.66.24-.06.47-.13.68-.27.11-.05.2-.14.3-.21l.33-.28,1.33-1.11,5.38-4.35c3.58-2.89,7.18-5.75,10.67-8.72,1.77-1.46,3.48-2.97,5.17-4.51,1.7-1.52,3.31-3.13,4.87-4.77,1.49-1.67,1.96-3.9,3.33-5.73,1-2.39.84-4.37,2-6.39Z"/>
    </g>
    <path class="cls-8" d="M1235.67,538.01c-2.1,7.81-4.29,15.57-6.59,23.32-2.3,7.74-4.68,15.46-7.31,23.1-1.32,3.82-2.7,7.62-4.24,11.36-.78,1.87-1.6,3.72-2.54,5.52-.48.89-.98,1.78-1.59,2.61l-.23.31c-.08.1-.17.19-.25.29l-.51.57-.56.53c-.09.09-.18.18-.28.26l-.3.24c-1.58,1.31-3.44,2.22-5.35,2.87-.96.32-1.95.58-2.94.79-.99.19-1.99.36-3,.46-2.01.21-4.04.26-6.06.18-2.02-.08-4.03-.27-6.02-.62,1.99.32,4.01.48,6.02.53,2.02.04,4.03-.03,6.03-.27,1-.12,1.99-.29,2.97-.5.98-.22,1.95-.49,2.9-.82,1.88-.68,3.7-1.6,5.21-2.9l.29-.24c.1-.08.18-.17.27-.26l.53-.52.49-.56c.08-.1.17-.18.24-.28l.22-.3c.58-.8,1.06-1.69,1.52-2.58.91-1.79,1.7-3.64,2.44-5.51,1.49-3.74,2.8-7.55,4.07-11.38,2.51-7.66,4.78-15.4,6.97-23.17,2.18-7.77,4.26-15.56,6.24-23.38h0c.09-.38.47-.6.84-.51.37.09.6.47.5.84,0,0,0,0,0,0Z"/>
    <path class="cls-5" d="M878.87,672.19l-11.81,7.44s-.07,7.12,5.16,9.79c5.23,2.67,12.46,2.09,17.67-.23l-11.02-17Z"/>
    <path class="cls-38" d="M1257.51,428.09c-.17.05-.37.02-.53-.08-.32-.2-.42-.62-.22-.94l4.86-7.8c.2-.32.62-.42.94-.22.32.2.42.62.22.94l-4.86,7.8c-.1.15-.24.26-.41.3Z"/>
    <g>
      <path class="cls-4" d="M1016.93,591.24c.3-5.62,1.11-10.14,6.8-10.14h115c5.69,0,10.37,4.51,10.67,10.14h-132.47Z"/>
      <g>
        <path class="cls-35" d="M1023.88,585.61l16.1-.34c.84,0,2.19-3.27,6.58-4.05l-27.58-88.02c-1.29-3.61-5.68-5.18-9.95-5.18h-20.89c-4.27,0-8.67,4.74-8.17,7.41l31.76,85c2.7,4.73,7.88,5.18,12.15,5.18Z"/>
        <path class="cls-25" d="M1015.46,591.19h30.7c-3.96-.39-4.84-3.68-5.52-6.26l-27.07-88.13c-1.22-3.88-5.45-5.18-9.72-5.18h-18.06c-4.27,0-6.67,1.47-5.87,5.18l26.4,87.23c1.31,4.57,4.87,7.16,9.14,7.16Z"/>
      </g>
      <path class="cls-36" d="M1004.52,518.4c1.09,4.11.74,7.76-.78,8.17-1.53.41-3.65-2.59-4.74-6.7-1.09-4.11-.74-7.76.78-8.17s3.65,2.59,4.74,6.7Z"/>
    </g>
    <g>
      <path class="cls-16" d="M1146.02,610.65s-5.67-8.51-10.71-12.92c-5.04-4.41-14.49-5.67-19.53-7.56-5.04-1.89-7.56-4.41-9.45-2.21-1.89,2.21-1.26,5.67,3.15,7.88,0,0-15.75-5.67-19.53-7.25-3.78-1.58-6.3-1.89-8.82,0-2.52,1.89-.63,5.36,1.58,6.3,2.21.95,12.92,7.56,12.92,7.56,0,0,3.97,17.43,8.51,22.68,5.99,6.93,18.36,6.55,31.82,8.19,12.92,1.58,10.08-22.68,10.08-22.68Z"/>
      <path class="cls-31" d="M1123.96,601.68c-.06,0-.12,0-.18-.01-9.86-1.59-16.79-5.64-17.08-5.81-.53-.31-.7-.99-.39-1.51.31-.53.99-.7,1.51-.39.07.04,6.88,4.01,16.31,5.53.6.1,1.01.66.92,1.27-.09.54-.56.93-1.09.93Z"/>
      <path class="cls-31" d="M1106.01,609.55c-.18,0-.35-.04-.52-.13l-8.82-4.73c-.54-.29-.74-.96-.45-1.5.29-.54.96-.74,1.5-.45l8.82,4.73c.54.29.74.96.45,1.5-.2.37-.58.58-.98.58Z"/>
      <path class="cls-31" d="M1103.49,617.11c-.17,0-.33-.04-.49-.12l-3.78-1.89c-.55-.27-.77-.94-.49-1.48.27-.55.94-.77,1.48-.49l3.78,1.89c.55.27.77.94.49,1.48-.19.39-.58.61-.99.61Z"/>
    </g>
  </g>
  <g id="sign">
    <rect class="cls-36" x="1023.25" y="357.07" width="73.73" height="54.93" rx="4.92" ry="4.92"/>
    <path class="cls-2" d="M1038.62,385.43l16.22,16.22c.59.59,1.55.57,2.11-.05l25.85-28.64c.62-.69.52-1.76-.22-2.32l-5.35-4.06c-.78-.59-1.89-.47-2.52.29l-19.2,23.27-11.12-10.38c-.74-.69-1.9-.63-2.57.13l-3.27,3.74c-.46.52-.43,1.31.06,1.81Z"/>
  </g>
  <g id="flowerpot_6" data-name="flowerpot 6">
    <g>
      <g>
        <path class="cls-23" d="M252.98,540.67c.33-.05.65-.11.99-.16-1.03-2.32-2.76-5.57-5.63-8.82-11.59-13.17-31.38-14.66-44.66-10.63-5.65,1.71-16.49,6.48-16.11,11.02.04.52.23.95.39,1.22,5.56-2.34,17.29-6.4,32.36-4.95,16.34,1.57,27.74,8.77,32.67,12.32Z"/>
        <path class="cls-26" d="M200.2,527.86c-4.68,1.24-8.83,3.08-12.45,5.2,2.62,2.95,7.18,7.29,13.96,9.96,2.82,1.11,8.4,2.87,26.97,1.17,6.04-.55,14.38-1.55,24.31-3.53-5.37-3.93-27.78-19.4-52.78-12.81Z"/>
        <path class="cls-43" d="M159.65,572.12c6.5-7.61-3-27.69-14.75-38.99-17.33-16.66-41.06-15.73-47.42-15.28,3.54,5.19,8.57,13.07,13.7,23.18,7.58,14.95,7.79,19.83,13.7,25.29,10.26,9.49,28.96,12.61,34.78,5.8Z"/>
        <path class="cls-14" d="M180.2,503.09c10.09,3.47,27.22-14.1,34.74-31.61,11.47-26.71,2.36-57.42-.51-57.47-.43,0-.52.68-1.77,2.36-3.29,4.42-7.62,6.25-9.31,7.07-6.67,3.22-17.73,12.65-22.05,17.24-11.87,12.62-13.75,32.26-10.18,46.35,1.68,6.61,3.6,14.18,9.07,16.06Z"/>
        <path class="cls-7" d="M105.64,483.3c4.44,6.48,8.97,11.56,12.82,15.37,3.64,3.6,9.82,9.63,19.5,15.12,6.73,3.82,13.03,6.17,18.14,7.67-3.69-8.85-11.86-15.5-19.34-21.6-8.63-7.7-19.69-12.52-31.12-16.55Z"/>
        <path class="cls-24" d="M139.61,491.93c-14.82-11.32-31.16-9.06-33.98-8.62.91.43,2.23,1.05,3.83,1.83,8.39,4.08,18.39,8.94,25.44,13.95,4.99,3.55,12.07,9.7,18.65,20.33,1.07.75,2.14,1.5,3.21,2.26-.38-2.95-2.74-18.72-17.17-29.74Z"/>
        <path class="cls-34" d="M154.95,592.01c.1-.17.22-.41.24-.7.25-3.1-9.97-6.74-15.58-7.72-11.41-1.99-21.78,3.87-27.48,7.93,14.14-4.2,28.75-2.84,42.82.49Z"/>
        <path class="cls-27" d="M112.13,591.53c-.09.09-.16.15-.16.15h0c2.81,1.4,6.9,3.11,12.03,4.2,13.18,2.78,28.76.44,30.94-3.86-14.06-3.33-28.68-4.69-42.82-.49Z"/>
        <path class="cls-39" d="M192.78,581.03c-2.37,2.08-8.16-.47-11.36-2.97-7.87-6.14-6.83-17.27-6.7-18.43,2.04-.34,6.15-.7,10.15,1.42,8.38,4.43,11.25,17.06,7.91,19.98Z"/>
        <path class="cls-13" d="M203.29,570.31c6.14-2.44,12.15,1.24,12.99,1.77-1.46,2.33-4.13,5.89-8.55,8.72-3.63,2.33-10.8,5.66-12.7,3.55-2.02-2.24,1.32-11.29,8.25-14.04Z"/>
        <path class="cls-12" d="M169.95,607.71h0c-.46,0-.83-.37-.83-.84.04-36.95,3.21-72.04,9.41-104.29,3.81-19.82,8-34.51,14-49.13,5.71-13.92,12.85-27.34,21.21-39.9.26-.38.77-.49,1.16-.23.38.26.49.77.23,1.16-8.3,12.47-15.38,25.79-21.05,39.61-5.95,14.51-10.11,29.1-13.9,48.81-6.19,32.16-9.34,67.14-9.38,103.98,0,.46-.37.83-.83.83Z"/>
        <path class="cls-12" d="M172.08,556.85s-.05,0-.08,0c-.38-.04-.68-.32-.74-.7-.49-3.03-1.21-6.05-2.13-8.97-.63-2-2.09-6.11-4.79-11.26-3.06-5.85-6.91-11.46-11.43-16.67-.3-.35-.26-.88.08-1.18.35-.3.88-.26,1.18.08,4.6,5.31,8.52,11.02,11.65,16.99,2.76,5.26,4.25,9.49,4.9,11.54.66,2.08,1.21,4.21,1.66,6.36,2.46-5.74,7.57-15.39,16.17-21.8.37-.28.89-.2,1.17.17.28.37.2.89-.17,1.17-9.8,7.3-14.93,19.03-16.68,23.73-.12.33-.44.54-.78.54Z"/>
        <path class="cls-12" d="M170.18,614.8c-.17,0-.33-.05-.48-.14-.44-.27-.54-.73-.88-2.25-.77-3.38-2.56-11.31-8.78-16.7-1.72-1.49-3.65-2.63-5.9-3.5-.43-.17-.65-.65-.48-1.08.17-.43.65-.65,1.08-.48,2.44.94,4.53,2.18,6.4,3.8,5.19,4.5,7.47,10.57,8.6,14.69-.08-2.38-.36-5.59-1.01-9.37-1.16-6.72-3.81-16.89-9.8-27.23-6.95-11.98-15.37-18.85-32.16-32.52-9.49-7.73-19.5-14.96-29.75-21.47-.39-.25-.5-.76-.26-1.15.25-.39.76-.5,1.15-.26,10.3,6.55,20.36,13.81,29.91,21.58,16.94,13.8,25.44,20.73,32.55,32.98,6.13,10.57,8.82,20.97,10.01,27.83,1.29,7.46,1.23,13.38.69,14.62-.18.42-.47.57-.68.62-.07.02-.14.02-.2.02Z"/>
        <path class="cls-12" d="M188.63,610.59c-.16,0-.32-.05-.47-.14-.38-.26-.48-.78-.22-1.16,2.55-3.76,5.6-9.87,5.67-17.59.16-17.4-14.89-27.71-16.6-28.83-.39-.25-.5-.77-.24-1.16.25-.39.77-.5,1.16-.24,1.79,1.17,17.53,11.95,17.36,30.24-.07,8.13-3.28,14.55-5.95,18.51-.16.24-.42.37-.69.37Z"/>
        <path class="cls-12" d="M194.04,586.86c-.15,0-.3-.04-.44-.12-.39-.24-.51-.76-.27-1.15,1.84-2.99,4.17-5.59,6.91-7.73,3.81-2.98,8.4-4.99,13.25-5.82.46-.08.89.23.96.68.08.45-.23.89-.68.96-3.2.54-7.96,1.94-12.5,5.49-2.58,2.02-4.77,4.47-6.51,7.29-.16.26-.43.4-.71.4Z"/>
      </g>
      <path class="cls-6" d="M209.42,611.36l-2.05,29.84-.45,6.45-1.69,24.59-.24,3.44-1.1,16.09-.24,3.42-1.52,22.04c-.12,1.71-1.55,3.03-3.25,3.03h-48.55c-1.72,0-3.13-1.32-3.25-3.03l-1.37-19.93-.23-3.36-1.1-16.05-.24-3.38-1.85-26.86-.45-6.45-2.05-29.84c-.13-1.89,1.37-3.48,3.25-3.48h63.14c1.89,0,3.38,1.59,3.25,3.48Z"/>
    </g>
  </g>
  <g id="line">
    <rect class="cls-3" x="1308.96" y="240.61" width="13.33" height="491.39" rx="1.25" ry="1.25"/>
    <rect class="cls-3" x="59" y="718.55" width="1258.49" height="13.45" rx="1.08" ry="1.08"/>
  </g>
  <g id="decor">
    <g class="cls-47">
      <path class="cls-36" d="M479.32,621.79l-9.56,1.72c-.65.12-1.29-.24-1.55-.84-2.19-5.05-5.16-9.62-8.74-13.61-.44-.49-.5-1.22-.12-1.76l5.55-7.99c.45-.65.29-1.54-.35-1.99l-15.11-10.51c-.65-.45-1.54-.29-1.99.36l-5.55,7.99c-.38.54-1.08.75-1.69.5-2.74-1.08-5.59-1.93-8.51-2.52-2.38-.49-4.82-.8-7.29-.93-.66-.04-1.22-.51-1.33-1.16l-1.72-9.57c-.14-.77-.88-1.29-1.66-1.15l-18.11,3.25c-.77.14-1.29.88-1.15,1.66l1.72,9.56c.12.65-.24,1.29-.84,1.55-5.05,2.19-9.62,5.17-13.6,8.74-.49.44-1.22.5-1.76.12l-7.99-5.55c-.65-.45-1.54-.29-1.99.36l-10.12,15.4c-.45.65-.67,1.24-.03,1.69l7.99,5.55c.54.38.74,1.08.5,1.69-1.97,4.98-3.16,10.3-3.46,15.8-.04.66-.51,1.21-1.16,1.33l-9.56,1.72c-.77.14-1.29.88-1.15,1.66l3.25,18.11c.14.78.88,1.29,1.66,1.15h.01s9.55-1.72,9.55-1.72c.65-.12,1.29.24,1.55.84,2.19,5.05,5.17,9.62,8.74,13.61.44.49.5,1.22.12,1.76l-5.55,7.99c-.45.65-.29,1.54.36,1.99l15.11,10.51c.65.45,1.54.29,1.99-.36l5.55-7.99c.38-.54,1.08-.75,1.69-.5,4.98,1.96,10.3,3.16,15.79,3.46.66.04,1.21.51,1.33,1.16l1.72,9.56c.14.78.88,1.29,1.66,1.15l18.11-3.25c.78-.14,1.29-.88,1.15-1.66l-1.72-9.57c-.12-.65.24-1.29.85-1.55,5.05-2.19,9.62-5.17,13.6-8.74.49-.44,1.22-.5,1.76-.12l7.98,5.56c.65.45,1.54.29,1.99-.36l10.51-15.11c.45-.65.29-1.54-.36-1.99l-7.98-5.55c-.55-.38-.75-1.08-.5-1.69,1.96-4.98,3.16-10.3,3.46-15.79.03-.66.51-1.21,1.16-1.33l9.56-1.72c.77-.14,1.29-.88,1.15-1.66l-3.25-18.11c-.14-.77-.88-1.29-1.66-1.15ZM452.02,637.5c3.55,14.71-8.66,33.09-23.59,35.61-20.23,3.41-35.4-10.1-37.33-25.11-1.11-8.62,1.18-16.51,5.51-22.7,2.11-3.01,4.7-5.61,7.62-7.69,3.57-2.55,7.64-4.31,11.9-5.08,14.9-2.67,31.6,7.17,35.89,24.96Z"/>
    </g>
    <g class="cls-47">
      <path class="cls-36" d="M579.87,575.98l-6.12,1.1c-.42.08-.82-.15-.99-.54-1.4-3.23-3.31-6.16-5.6-8.71-.28-.32-.32-.78-.08-1.13l3.56-5.11c.29-.41.19-.98-.23-1.27l-9.67-6.73c-.41-.29-.98-.19-1.27.23l-3.56,5.11c-.24.35-.69.48-1.08.32-1.76-.69-3.58-1.24-5.45-1.62-1.53-.31-3.08-.51-4.67-.6-.42-.02-.78-.33-.85-.74l-1.1-6.13c-.09-.5-.56-.83-1.06-.74l-11.6,2.08c-.5.09-.83.56-.74,1.06l1.1,6.12c.07.42-.15.83-.54.99-3.23,1.4-6.16,3.31-8.71,5.59-.32.28-.78.32-1.13.08l-5.11-3.56c-.41-.29-.98-.19-1.27.23l-6.48,9.86c-.29.41-.43.8-.02,1.08l5.11,3.56c.35.24.48.69.32,1.09-1.26,3.19-2.02,6.59-2.22,10.11-.02.42-.33.78-.74.85l-6.12,1.1c-.5.09-.83.56-.74,1.06l2.08,11.6c.09.5.56.83,1.06.74h0s6.12-1.1,6.12-1.1c.42-.07.83.15.99.54,1.4,3.23,3.31,6.16,5.6,8.71.28.32.32.78.08,1.13l-3.56,5.11c-.29.41-.19.98.23,1.27l9.67,6.73c.41.29.98.19,1.27-.23l3.56-5.11c.24-.35.69-.48,1.09-.32,3.19,1.26,6.59,2.02,10.11,2.21.42.02.78.33.85.74l1.1,6.12c.09.5.56.83,1.06.74l11.6-2.08c.5-.09.83-.56.74-1.06l-1.1-6.13c-.07-.42.15-.83.54-.99,3.23-1.4,6.16-3.31,8.71-5.6.32-.28.78-.32,1.13-.08l5.11,3.56c.41.29.98.19,1.27-.23l6.73-9.67c.29-.41.19-.98-.23-1.27l-5.11-3.56c-.35-.24-.48-.69-.32-1.09,1.26-3.19,2.02-6.59,2.21-10.11.02-.42.33-.78.74-.85l6.12-1.1c.5-.09.83-.56.74-1.06l-2.08-11.6c-.09-.5-.56-.83-1.06-.74ZM562.39,586.04c2.27,9.42-5.55,21.18-15.1,22.8-12.95,2.19-22.66-6.46-23.9-16.08-.71-5.52.75-10.57,3.53-14.53,1.35-1.93,3.01-3.59,4.88-4.92,2.29-1.63,4.89-2.76,7.62-3.25,9.54-1.71,20.23,4.59,22.98,15.98Z"/>
    </g>
    <g>
      <g class="cls-47">
        <path class="cls-36" d="M765.52,65.45l.12,12.2c0,.52.43.94.96.94l6.44-.06c.44,0,.82.3.92.72.87,3.54,2.31,6.86,4.2,9.86.23.37.19.85-.12,1.17l-4.52,4.61c-.37.37-.36.97.01,1.34l8.71,8.55c.37.37.97.36,1.34-.01l4.52-4.61c.31-.31.79-.37,1.16-.14,3.04,1.84,6.38,3.21,9.94,4.01.43.1.74.47.74.91l.06,6.45c0,.52.43.94.96.94l12.2-.12c.52,0,.94-.43.94-.96l-.06-6.44c0-.44.3-.82.72-.92,3.54-.87,6.86-2.31,9.86-4.2.37-.23.85-.19,1.17.12l4.61,4.52c.37.37.97.36,1.34-.01l8.55-8.71c.37-.37.36-.97-.01-1.34l-4.61-4.52c-.31-.31-.37-.79-.14-1.16,1.84-3.04,3.21-6.38,4.01-9.94.1-.43.47-.74.91-.74l6.43-.06h0c.52,0,.94-.43.94-.95l-.12-12.2c0-.52-.43-.94-.96-.94l-6.44.06c-.44,0-.82-.3-.92-.72-.88-3.54-2.31-6.86-4.21-9.86-.23-.37-.19-.85.12-1.17l4.52-4.61c.37-.37.15-.73-.23-1.1l-8.5-8.78c-.37-.37-.97-.36-1.34.01l-4.52,4.61c-.31.31-.79.37-1.16.14-3.04-1.84-6.38-3.21-9.94-4.01-.43-.1-.74-.47-.74-.91l-.06-6.44c0-.52-.43-.94-.96-.94l-12.2.12c-.52,0-.94.43-.94.96l.06,6.45c0,.44-.3.81-.72.92-1.59.39-3.14.9-4.63,1.51-1.83.75-3.58,1.65-5.23,2.7-.37.23-.85.19-1.16-.12l-4.61-4.52c-.37-.37-.97-.36-1.34.01l-8.55,8.71c-.37.37-.36.97.01,1.34l4.61,4.52c.31.31.37.79.14,1.16-1.84,3.04-3.21,6.38-4.01,9.94-.1.43-.47.74-.91.74l-6.44.06c-.52,0-.94.43-.94.96ZM806.48,50.65c2.87-.03,5.74.62,8.38,1.84,2.16.99,4.17,2.37,5.92,4.07,3.58,3.49,6.05,8.36,6.39,14.11.59,10.02-7.62,20.7-21.22,20.97-10.04.2-20.26-10.26-19.77-20.29.6-12.12,10.26-20.6,20.3-20.7Z"/>
      </g>
      <g class="cls-47">
        <path class="cls-36" d="M691.09,49.12l.09,9.26c0,.4.33.71.73.71l4.89-.05c.33,0,.62.23.7.55.66,2.69,1.75,5.21,3.19,7.49.18.28.14.65-.09.89l-3.43,3.5c-.28.28-.27.74,0,1.02l6.61,6.49c.28.28.74.27,1.02,0l3.43-3.5c.23-.24.6-.28.88-.11,2.3,1.39,4.84,2.43,7.55,3.05.33.07.56.36.56.69l.05,4.89c0,.4.33.71.73.71l9.26-.09c.4,0,.72-.33.71-.73l-.05-4.89c0-.33.23-.62.55-.7,2.69-.66,5.21-1.75,7.49-3.19.28-.18.65-.14.89.09l3.5,3.43c.28.28.74.27,1.02,0l6.49-6.61c.28-.28.27-.74,0-1.02l-3.5-3.43c-.24-.23-.28-.6-.11-.88,1.39-2.31,2.44-4.85,3.05-7.55.07-.33.36-.56.69-.56l4.88-.05h0c.4,0,.72-.33.71-.72l-.09-9.26c0-.4-.33-.71-.73-.71l-4.89.05c-.33,0-.62-.23-.7-.55-.66-2.69-1.75-5.21-3.19-7.49-.18-.28-.14-.65.09-.89l3.43-3.5c.28-.28.11-.56-.17-.84l-6.45-6.67c-.28-.28-.74-.27-1.02,0l-3.43,3.5c-.23.24-.6.28-.88.11-2.3-1.39-4.84-2.43-7.55-3.05-.33-.07-.56-.36-.56-.69l-.05-4.89c0-.4-.33-.71-.72-.71l-9.26.09c-.4,0-.71.33-.71.73l.05,4.89c0,.33-.23.62-.55.7-1.21.3-2.38.68-3.52,1.15-1.39.57-2.72,1.25-3.97,2.05-.28.18-.65.14-.88-.09l-3.5-3.43c-.28-.28-.74-.27-1.02,0l-6.49,6.61c-.28.28-.27.74.01,1.02l3.5,3.43c.24.23.28.6.11.88-1.39,2.31-2.44,4.85-3.05,7.55-.07.32-.36.56-.69.56l-4.89.05c-.4,0-.72.33-.71.72ZM722.18,37.89c2.18-.02,4.36.47,6.36,1.39,1.64.75,3.16,1.8,4.49,3.09,2.72,2.65,4.59,6.34,4.85,10.71.45,7.6-5.78,15.71-16.11,15.92-7.62.15-15.38-7.79-15-15.4.45-9.2,7.79-15.63,15.41-15.71Z"/>
      </g>
    </g>
  </g>
</svg>