<?xml version="1.0" encoding="UTF-8"?>
<svg id="Layer_1" xmlns="http://www.w3.org/2000/svg" viewBox="0 0 199.73 46.27">
  <defs>
    <style>
      .cls-1 {
        font-size: 30.86px;
      }

      .cls-1, .cls-2 {
        fill: #c62127;
        font-family: Cubano-Regular, Cubano;
      }

      .cls-3 {
        fill: #c7212b;
      }

      .cls-4 {
        fill: #171e2c;
      }

      .cls-5 {
        fill: none;
        stroke: #171e2c;
        stroke-miterlimit: 10;
        stroke-width: 1.03px;
      }

      .cls-6 {
        fill: #b62025;
      }

      .cls-2 {
        font-size: 29.97px;
      }
    </style>
  </defs>
  <text class="cls-1" transform="translate(0 40.1)"><tspan x="0" y="0">People</tspan></text>
  <text class="cls-2" transform="translate(132.57 39.58)"><tspan x="0" y="0">Plus</tspan></text>
  <g>
    <ellipse class="cls-4" cx="118.28" cy="39.55" rx="8.94" ry="1.76"/>
    <path class="cls-5" d="M120.04,21.01l.45-2.96c-6.34-.84-7.8,1.79-7.8,1.79,6.46,4.31,14.53-.54,14.53-.54-7.36-8.25-18.57-.63-18.57-.63l3.95,19.11.15.9"/>
    <line class="cls-5" x1="112.55" y1="19.91" x2="115.24" y2="39.32"/>
    <path class="cls-5" d="M127.49,19.31s-3.86,9.59-3.59,19.92"/>
    <line class="cls-5" x1="120.09" y1="20.7" x2="119.95" y2="21.58"/>
    <polygon class="cls-4" points="124.26 28.95 116.72 28.95 116.72 25.79 125.25 25.79 124.26 28.95"/>
    <polygon class="cls-4" points="124.12 33.67 117.57 33.67 117.57 30.51 124.35 30.51 124.12 33.67"/>
    <polygon class="cls-4" points="123.89 38.39 118.38 38.39 118.38 35.23 123.99 35.23 123.89 38.39"/>
    <path class="cls-3" d="M107.73,17.36s12.45-9.22,20.52,1.28c0,0-8.81-21.93-20.52-1.28Z"/>
    <ellipse class="cls-3" cx="116.72" cy="3.91" rx="3.67" ry="3.91"/>
    <ellipse class="cls-6" cx="116.87" cy="4.16" rx="3.41" ry="3.66"/>
  </g>
</svg>