<?xml version="1.0" encoding="UTF-8"?>
<svg xmlns="http://www.w3.org/2000/svg" xmlns:xlink="http://www.w3.org/1999/xlink" viewBox="0 0 1520 679">
  <defs>
    <style>
      .cls-1 {
        fill: #be553f;
      }

      .cls-1, .cls-2, .cls-3, .cls-4, .cls-5, .cls-6, .cls-7, .cls-8, .cls-9, .cls-10, .cls-11, .cls-12, .cls-13, .cls-14, .cls-15, .cls-16, .cls-17, .cls-18, .cls-19, .cls-20 {
        stroke-width: 0px;
      }

      .cls-2 {
        fill: #d4644e;
      }

      .cls-21 {
        font-family: Montserrat-Bold, Montserrat;
        font-size: 35.78px;
        font-weight: 700;
      }

      .cls-21, .cls-14, .cls-15 {
        fill: #806b73;
      }

      .cls-22 {
        letter-spacing: -.02em;
      }

      .cls-23 {
        opacity: .5;
      }

      .cls-3 {
        fill: #f9f3e8;
      }

      .cls-4 {
        fill: #f24955;
      }

      .cls-5 {
        fill: #fffdff;
      }

      .cls-6 {
        fill: #392c31;
      }

      .cls-24 {
        isolation: isolate;
      }

      .cls-7 {
        fill: #ed8c8f;
      }

      .cls-8 {
        fill: #6369d3;
      }

      .cls-9 {
        fill: #e1745f;
      }

      .cls-10 {
        fill: none;
      }

      .cls-11 {
        fill: #b96359;
      }

      .cls-25 {
        clip-path: url(#clippath-1);
      }

      .cls-12 {
        fill: #f2c5a3;
      }

      .cls-13 {
        fill: #8dd479;
      }

      .cls-14 {
        mix-blend-mode: multiply;
        opacity: .21;
      }

      .cls-26 {
        letter-spacing: 0em;
      }

      .cls-16 {
        fill: #ee4b4e;
      }

      .cls-27 {
        clip-path: url(#clippath);
      }

      .cls-17 {
        fill: #ad4449;
      }

      .cls-18 {
        fill: #b34d52;
      }

      .cls-28 {
        letter-spacing: 0em;
      }

      .cls-19 {
        fill: #eaad46;
      }

      .cls-20 {
        fill: #7098fa;
      }
    </style>
    <clipPath id="clippath">
      <rect class="cls-10" width="1520" height="679"/>
    </clipPath>
    <clipPath id="clippath-1">
      <rect class="cls-10" x="349" y="179" width="750" height="500"/>
    </clipPath>
  </defs>
  <g class="cls-24">
    <g id="Layer_1" data-name="Layer 1">
      <g class="cls-27">
        <g>
          <path class="cls-12" d="M0,246.27c14.98,2.48,29.45,7.09,42.19,13.95,33.84,18.22,81.81,69.34,81.17,161.6-.14,20.15,3.65,41.43,15.2,57.94,15.72,22.44,46.6,26.64,73.83,29.64,27.23,2.99,58.35,9.35,71.45,33.42,12.35,22.7,4.35,54.89,23.04,72.75,14.04,13.42,36.37,11.79,54.33,19.22,18.28,7.56,30.44,24.85,34.98,44.23H0V246.27Z"/>
          <path class="cls-12" d="M1520,246.27c-14.98,2.48-29.45,7.09-42.19,13.95-33.84,18.22-81.81,69.34-81.17,161.6.14,20.15-3.65,41.43-15.2,57.94-15.72,22.44-46.6,26.64-73.83,29.64-27.23,3-58.35,9.35-71.45,33.42-12.35,22.7-4.35,54.89-23.04,72.75-14.04,13.42-36.37,11.79-54.33,19.22-18.28,7.56-30.44,24.85-34.98,44.23h396.2V246.27Z"/>
          <g class="cls-25">
            <g>
              <path class="cls-3" d="M631.45,529.63l245.75-36c4.73-.69,9.16,2.47,10.04,7.17l30.27,161.5c2.45,13.07-6.42,25.57-19.56,27.59l-237.09,36.27c-14.86,2.27-28.99-7.17-32.57-21.77l-29.89-121.86c-1.38-5.62,2.25-11.23,7.93-12.29l22.24-4.13-4.6-26.13c-.87-4.94,2.51-9.62,7.48-10.35Z"/>
              <path class="cls-14" d="M628.57,566.11l-22.24,4.13c-5.68,1.06-9.31,6.67-7.93,12.29l29.89,121.86c1.34,5.46,4.15,10.19,7.93,13.87,23.29.5,16.68-34.16,16.68-34.16l-24.33-117.98Z"/>
              <g>
                <g>
                  <rect class="cls-8" x="658.17" y="596.06" width="81.85" height="81.85" transform="translate(-104.23 137.83) rotate(-10.48)"/>
                  <rect class="cls-13" x="662.97" y="648.36" width="81.85" height="29.11" transform="translate(-108.87 139.14) rotate(-10.48)"/>
                  <polygon class="cls-1" points="676.8 643.9 737.38 618.93 741.5 641.16 678.45 652.82 676.8 643.9"/>
                  <polygon class="cls-9" points="695.9 649.6 657.71 638.21 661.01 656.05 695.9 649.6"/>
                  <path class="cls-19" d="M690.41,619.97c1.01,5.48-2.61,10.74-8.09,11.76-5.48,1.01-10.74-2.61-11.76-8.09-1.01-5.48,2.61-10.74,8.09-11.76,5.48-1.01,10.74,2.61,11.76,8.09Z"/>
                </g>
                <rect class="cls-15" x="740.45" y="582.17" width="60.59" height="6.58" transform="translate(-93.66 150) rotate(-10.48)"/>
                <rect class="cls-15" x="743.18" y="596.92" width="60.58" height="6.58" transform="translate(-96.29 150.75) rotate(-10.48)"/>
                <rect class="cls-15" x="745.91" y="611.67" width="60.58" height="6.58" transform="translate(-98.93 151.49) rotate(-10.48)"/>
                <rect class="cls-15" x="748.64" y="626.42" width="60.59" height="6.58" transform="translate(-101.57 152.23) rotate(-10.48)"/>
                <rect class="cls-15" x="751.36" y="641.11" width="60.59" height="6.58" transform="translate(-104.2 152.97) rotate(-10.48)"/>
                <rect class="cls-15" x="754.09" y="655.86" width="60.59" height="6.58" transform="translate(-106.84 153.72) rotate(-10.48)"/>
                <rect class="cls-15" x="816" y="568.19" width="60.59" height="6.58" transform="translate(-89.85 163.52) rotate(-10.48)"/>
                <rect class="cls-15" x="818.73" y="582.94" width="60.59" height="6.58" transform="translate(-92.49 164.26) rotate(-10.48)"/>
                <rect class="cls-15" x="821.46" y="597.69" width="60.59" height="6.58" transform="translate(-95.13 165) rotate(-10.48)"/>
                <rect class="cls-15" x="824.19" y="612.44" width="60.59" height="6.58" transform="translate(-97.77 165.74) rotate(-10.48)"/>
                <rect class="cls-15" x="826.91" y="627.13" width="60.59" height="6.58" transform="translate(-100.4 166.49) rotate(-10.48)"/>
                <rect class="cls-15" x="829.64" y="641.88" width="60.59" height="6.58" transform="translate(-103.03 167.23) rotate(-10.48)"/>
                <rect class="cls-15" x="759.19" y="683.41" width="60.59" height="6.58" transform="translate(-111.77 155.11) rotate(-10.48)"/>
                <rect class="cls-15" x="646.56" y="564.21" width="227.87" height="6.58" transform="translate(-90.56 147.84) rotate(-10.48)"/>
                <rect class="cls-15" x="834.73" y="669.43" width="60.59" height="6.58" transform="translate(-107.96 168.61) rotate(-10.48)"/>
              </g>
              <g>
                <polygon class="cls-15" points="628.41 646.49 644.53 643.51 643.2 637.07 627.22 640.02 628.41 646.49"/>
                <polygon class="cls-15" points="631.13 661.18 647.54 658.15 646.22 651.7 629.93 654.71 631.13 661.18"/>
                <polygon class="cls-15" points="625.68 631.74 641.5 628.82 640.17 622.37 624.49 625.27 625.68 631.74"/>
                <polygon class="cls-15" points="620.22 602.24 635.44 599.42 634.11 592.98 619.03 595.77 620.22 602.24"/>
                <polygon class="cls-15" points="649.25 666.4 632.66 669.46 633.86 675.94 650.58 672.84 649.25 666.4"/>
                <polygon class="cls-15" points="622.95 616.99 638.47 614.12 637.14 607.67 621.76 610.52 622.95 616.99"/>
              </g>
            </g>
          </g>
          <text class="cls-21" transform="translate(645.25 570.54) rotate(-10.48)"><tspan x="0" y="0">N</tspan><tspan class="cls-28" x="28.91" y="0">E</tspan><tspan class="cls-22" x="52.57" y="0">W</tspan><tspan class="cls-26" x="93.65" y="0">S</tspan></text>
          <path class="cls-4" d="M151.06,600.67l-.29-.18c-2.61-1.59-4.58-4.04-6.38-6.43l-.09-.13c-.52-.72-1.04-1.46-1.58-2.16-.67-.87-1.4-1.75-2.18-2.61-.5-.2-1.03-.39-1.56-.55-.45-.15-1.05-.34-1.66-.5-1.12-.29-2.3-.5-3.51-.62-1.21-.12-2.46-.15-3.74-.1-1.53.06-2.72.16-3.85.34-2.44.37-4.88,1.02-7.47,1.72l-1.08.29c-.58.15-1.17.31-1.74.45-.69.17-1.39.33-2.09.47-1.56.33-2.95.54-4.24.67-2.1.2-4.29.18-6.5-.07-2.01-.26-4.04-.72-6.21-1.4-4.4-1.32-8.3-3.5-11.55-5.46l-1.36-.84c-.36-.24-.72-.48-1.07-.72l-.24-.17c-.87-.6-1.73-1.21-2.6-1.83l-3.06-2.2c-.7-.5-1.42-1.02-2.1-1.56-3.19-2.46-6.71-4.95-10.46-7.4l-1.28-.84,1.51.22c1.55.22,3.2.39,4.9.48,1.42.07,3,.08,4.99.04,3.39-.08,6.76-.34,9.92-.6,1-.09,2.01-.18,3.01-.27,2.24-.2,4.55-.42,6.77-.54,1.74-.1,3.29-.15,4.77-.16l2.31.02c.8.01,1.59.04,2.33.09,2.54.16,5.03.52,7.39,1.09,2.4.51,4.69,1.21,6.81,2.06,2.04.85,4.2,1.8,6.2,2.94.67.38,1.33.78,1.99,1.19-6.97-6.52-13.5-13.24-19.47-20.01l.02.32-1.03-1.47-.41-.46-.12-.07c-.86-.53-1.67-1.04-2.58-1.47-.95-.46-1.96-.87-3.01-1.21-1.05-.34-2.16-.62-3.29-.83-1.36-.26-2.43-.41-3.47-.5-2.46-.21-4.99-.14-7.67-.06l-2.84.07c-.72,0-1.42,0-2.13-.02-1.58-.04-2.96-.14-4.24-.32-2.07-.28-4.17-.8-6.23-1.53-1.81-.67-3.66-1.56-5.65-2.73-.87-.52-1.77-1.09-2.66-1.7-.43-.3-.86-.6-1.3-.92-.41-.32-.82-.65-1.22-.98-1.51-1.24-3.03-2.62-4.65-4.21-1.33-1.27-2.55-2.66-3.74-4l-1.65-1.89c-.98-1.13-2-2.29-2.98-3.46-1.61-1.96-2.86-3.43-4.07-4.79-.46-.52-.93-1.03-1.41-1.55-.24-.27-.49-.53-.74-.8-.72-.8-1.45-1.58-2.17-2.31l-1.1-1.12,1.46.57c1.45.56,3.01,1.09,4.64,1.55,1.5.41,3.08.78,4.83,1.14,3.29.67,6.62,1.17,9.75,1.63.79.11,1.59.22,2.38.32,2.42.33,4.92.66,7.29,1.07,1.71.29,3.22.59,4.62.9,1.38.31,2.97.68,4.5,1.14,2.46.73,4.86,1.69,7.33,2.92,1.7.82,3.34,1.76,4.89,2.8l-3.02-4.49-3.8-6.11c-.35-.55-.68-1.13-1-1.68l-3.51-6.18c-2.49-2.13-5.62-3.8-9.31-4.96-2.35-.76-4.82-1.26-7.45-1.79l-.64-.13c-1.28-.26-2.77-.57-4.21-.92-1.37-.33-2.7-.74-4.07-1.25-1.94-.74-3.86-1.7-5.7-2.88-1.06-.68-1.88-1.27-2.58-1.83-.79-.64-1.57-1.33-2.34-2.06-1.42-1.35-2.85-2.91-4.25-4.62-1.11-1.42-2.25-3.04-3.57-5.1-1.67-2.54-3.11-5.25-4.51-7.87-.52-.98-1.05-1.97-1.58-2.95-.33-.59-.63-1.18-.94-1.77-.17-.33-.34-.66-.51-.98-.48-.91-.97-1.83-1.48-2.73-.53-.96-1.05-1.84-1.57-2.7l-2.43-3.94,1.24.8c6.02,3.86,12.91,6.39,19.57,8.85,5.67,2.09,11.03,4.06,15.83,6.77.97.55,1.93,1.14,2.83,1.74.92.62,1.82,1.29,2.62,1.87,1.27.96,2.49,1.99,3.62,3.07l-1.63-4.57-1.58-5.13-.09.24-.22-1.14-.51-1.78-.39-1.46c-2.01-2.8-5.04-5.39-8.75-7.49-2.19-1.21-4.56-2.19-7.07-3.22l-.54-.22c-2.39-1-5.15-2.19-7.66-3.71-1.86-1.14-3.57-2.45-5.07-3.89-1.42-1.38-2.79-2.97-4.07-4.72-.6-.82-1.19-1.69-1.75-2.59-.57-.91-1.06-1.82-1.53-2.71-.89-1.72-1.74-3.56-2.6-5.62-.36-.84-.67-1.71-.96-2.54l-.12-.35c-.34-.97-.67-1.94-1-2.91-.17-.53-.35-1.05-.52-1.58-.47-1.41-.95-2.86-1.37-4.3-.72-2.36-1.3-4.17-1.9-5.87l-1.05-2.93c-.36-1-.74-1.97-1.13-2.9l-.6-1.43,1.14,1.06c5.12,4.77,11.35,8.45,17.38,12,5.3,3.13,10.3,6.08,14.56,9.69,2.25,1.87,4.25,3.92,6.12,6.26,1.4,1.7,2.65,3.51,3.74,5.4-.16-1.54-.32-3.1-.46-4.64l-.14-1.59-.16-3-.17.5.02-2.08c.01-1.13-.09-2.33-.32-3.57-.18-1.17-.49-2.34-.9-3.48-.41-1.14-.94-2.26-1.57-3.35-.62-1.04-1.31-2.15-2.15-3.19-1.43-1.81-3.14-3.45-4.96-5.2l-.45-.44c-1.67-1.65-3.75-3.69-5.39-5.91-.65-.88-1.19-1.71-1.66-2.53-.47-.85-.9-1.74-1.28-2.65-.72-1.72-1.32-3.59-1.77-5.59-.36-1.71-.59-3.55-.74-5.79-.06-.94-.1-1.92-.11-2.91-.01-.84.03-1.68.07-2.5l.02-.41c.12-2.1.31-4.18.46-5.76.12-1.1.26-2.19.41-3.29.11-.81.21-1.62.31-2.43.08-.76.17-1.52.26-2.28.35-2.98.71-6.07.72-9.13v-1.43s.64,1.28.64,1.28c1.2,2.43,2.73,4.96,4.69,7.74,1.58,2.21,3.33,4.38,5.02,6.48l3.45,4.28c1.1,1.34,1.98,2.46,2.77,3.51,1.83,2.43,3.37,4.78,4.69,7.17.8,1.49,1.48,3.03,2.03,4.57.26.76.52,1.52.75,2.29.23.76.43,1.54.6,2.32.31,1.41.52,2.94.65,4.66.15,1.53.19,3.12.12,4.72-.21,3.66-.64,6.68-1.36,9.51l-.21.83c-.33,1.29-.67,2.62-1.09,3.93-.48,1.53-1.05,3.11-1.69,4.7.22,7.67.8,14.34,1.79,20.4.34.82.64,1.65.92,2.48.04-1.35.12-2.69.2-3.97.07-1.03.16-2.04.27-3.02.13-.94.28-1.93.48-3.01.43-2.38,1.09-5.49,2.35-8.48,1.31-3.17,2.78-5.67,4.64-7.85,1.02-1.22,2.21-2.44,3.55-3.63,1.36-1.21,2.7-2.27,4.09-3.26,2.86-2.04,5.92-3.91,9.06-5.79l4.54-2.72c1.71-1.04,3.08-1.9,4.3-2.73,1.47-.99,2.72-1.92,3.82-2.83,1.29-1.05,2.36-2.04,3.25-3.03l2.02-2.24-1.47,2.63c-.33.58-.65,1.21-.95,1.85-.33.68-.58,1.29-.79,1.88-.41,1.13-.8,2.36-1.23,3.87l-.54,1.96-.45,1.98c-.29,1.27-.61,2.63-.99,4.01l-.7,2.57c-.25.87-.52,1.74-.81,2.6-.3.87-.62,1.75-.96,2.61-.38,1.04-.7,1.85-1.02,2.61-.68,1.62-1.51,3.34-2.54,5.26-.92,1.78-1.97,3.55-3.11,5.28-.49.75-1.03,1.51-1.6,2.27-.53.74-1.09,1.48-1.67,2.2-1.11,1.39-2.34,2.79-3.74,4.27-2.5,2.62-5.25,5.31-8.67,8.47-3.92,3.58-5.92,8.55-7.86,13.35l-.09.23,1.94,6.33c.21.68.43,1.41.7,2.12l2.27,6.33c.16.45.35.9.53,1.34.09.22.19.45.27.67,1.72,2.03,3.15,4.22,4.36,6.27-.06-.31-.12-.63-.17-.94-.17-1.04-.29-2.13-.39-3-.19-1.77-.39-3.87-.43-6.03.01-3.52.24-6.21.74-8.73.68-3.16,1.7-5.95,3.11-8.52,1.5-2.62,3.56-5.28,6.3-8.13.59-.62,1.22-1.25,1.87-1.88.65-.62,1.31-1.23,1.98-1.84,1.36-1.23,2.74-2.44,4.04-3.56l.64-.55c2.5-2.16,4.86-4.21,7.09-6.32,1.29-1.23,2.36-2.35,3.29-3.42.93-1.07,1.79-2.22,2.64-3.5l1.7-2.59-1.1,2.89c-.49,1.28-.76,2.52-1.03,3.9-.22,1.17-.41,2.43-.58,3.96l-.52,8.03c-.11,1.77-.32,3.55-.6,5.29-.27,1.8-.55,3.57-.99,5.4-.21.92-.46,1.85-.72,2.76-.25.97-.51,1.88-.8,2.78-.58,1.84-1.29,3.76-2.13,5.71-1.25,3.08-2.92,6.2-5.24,9.83-1.93,3.07-4.15,6.19-6.89,9.93-.42.57-.79,1.14-1.11,1.7-.32.56-.62,1.16-.91,1.78-.52,1.15-.98,2.38-1.4,3.78-.35,1.16-.68,2.44-1.01,3.94-.21.95-.37,1.89-.52,2.79-.06.33-.11.66-.17.99.17.4.33.8.44,1.14l1.57,2.75c.3.53.61,1.08.95,1.6l3.8,6.12,4.05,6.02c.39.6.82,1.19,1.24,1.76l1.56,2.14c.89.81,1.76,1.67,2.59,2.57l.5.54c.11.12.23.24.34.36-.15-.33-.3-.67-.45-1.01-.46-1.12-.89-2.22-1.28-3.29-.42-1.13-.8-2.24-1.15-3.32l-.27-.85-.23-.85c-.15-.57-.29-1.15-.42-1.72-.61-2.68-1.18-5.59-1.18-8.66-.02-1.53.06-3.03.23-4.46.09-.7.2-1.46.37-2.24.17-.76.38-1.53.61-2.27.93-2.96,2.36-5.98,4.39-9.24,1.93-3.06,4.11-5.99,6.18-8.73l3.18-4.18c1.21-1.59,2.16-2.89,2.98-4.08,1-1.45,1.82-2.74,2.5-3.96.85-1.49,1.47-2.77,1.91-3.92l1.1-2.84-.45,3.02c-.62,4.13-.04,7.95.57,11.99.18,1.19.37,2.43.52,3.66l.03.2c.21,1.61.42,3.28.52,4.99.06.89.08,1.79.1,2.7.04.89.06,1.82.05,2.73,0,1.93-.16,3.97-.32,5.71-.16,1.95-.43,3.97-.81,5.98-1.26,7.04-4.03,13.79-7.52,21.89-2.15,4.86-1.94,10.2-1.75,15.36v.16c5.77,6.69,12.21,13.43,19.18,20.06-.25-.38-.5-.76-.74-1.13-.76-1.2-1.57-2.49-2.25-3.89-.72-1.4-1.32-2.7-1.86-3.98-.29-.69-.56-1.38-.8-2.05-.24-.67-.44-1.38-.62-2.06l-.02-.09c-.39-1.5-.68-2.99-.86-4.42-.21-1.8-.26-3.23-.17-4.62.18-3.03.84-6.32,2.04-10.07,1.08-3.31,2.47-6.61,3.92-9.99l2.07-4.82c.8-1.85,1.41-3.34,1.93-4.7,1.23-3.2,2.01-6.06,2.4-8.74l.41-2.81.26,2.83c.06.66.15,1.33.25,2,.12.58.26,1.19.45,1.92.3,1.13.68,2.33,1.18,3.77l.33.92,1.14,2.73c.46,1.1.93,2.28,1.48,3.72,1.14,2.72,2.18,5.96,3.25,10.2.72,3.23,1.48,7.13,1.74,11.65v.17c.05.86.09,1.7.12,2.54.02.88.02,1.8,0,2.75-.04,1.77-.17,3.62-.37,5.66l-.31,2.89c-.11.97-.24,1.95-.37,2.94-.28,2.06-.61,4.17-.92,6.15-.21,1.35-.28,2.71-.22,4.04.06,1.25.23,2.56.51,4,.23,1.18.53,2.48.94,3.96.18.65.37,1.3.56,1.94l.59,1.8c.95,1.03,1.8,2.04,2.58,3.07.54.71,1.08,1.46,1.6,2.2l.08.11c1.88,2.47,3.63,4.62,5.91,6l.28.17-1.03,1.79Z"/>
          <g>
            <path class="cls-6" d="M221.39,199.89s-15-24.6-49.47-10.55c-36.87,15.03-13.86,64.54-23.63,87.88-9.77,23.34.24,24.29,19.56,25.95,19.32,1.66,58.12,2.77,67.16-7.84,9.34-10.97-1.02-65.08-13.62-95.44Z"/>
            <g>
              <g>
                <path class="cls-11" d="M354.97,365.35s4.71,15.15,16.51,16.34c9.53.95,16.99-9.12,19.51-13.03.6-.94.92-1.52.92-1.52,0,0,.7-.02,1.72-.18,2.4-.37,6.61-1.46,7.87-4.65,1.8-4.55-7.28-6.21-7.28-6.21,0,0,3.9-4.6,2.38-7.33-1.5-2.69-7.55-2.45-7.55-2.45,0,0,5.85-5.07,3.19-8.41-4-5.02-9.81,1.93-10.29,2.33.35-.54,7.32-9.39,2.55-10.3-4.17-.8-9.93,3.66-13.61,8.7-.59.8-.91,1.26-.91,1.26,0,0-.28-.16-.78-.4-2.35-1.14-9.49-4.07-13.21.03-4.49,4.96-1,25.82-1,25.82Z"/>
                <path class="cls-6" d="M393.63,366.96c-1.03.16-1.73.18-1.73.18,0,0-.32.58-.92,1.52-2.14-.05-5.36-.27-7.64-1.01-.92-.3-1.68-.68-2.16-1.16-.71-.71-.96-1.65-.74-2.72.35-1.65,1.83-3.46,3.62-4.89-2.78.06-6.24-.26-7.97-1.99-.81-.81-.84-1.66-.72-2.22.08-.4.28-.79.55-1.17.27-.38.63-.75,1.04-1.11-.63.02-1.21-.02-1.7-.14-.23-.05-.43-.12-.63-.22-.91-.42-1.47-1.22-1.63-2.29-.16-1.13.14-2.5.71-3.88.25-.58.99-.73,1.45-.3,0,0,.01.01.02.02.27.26.36.66.21,1-.46,1.1-.7,2.14-.59,2.89.09.59.36.79.59.9.36.17.92.23,1.59.2,1.13-.04,2.59-.33,4.09-.72.77-.36,1.4-.61,1.7-.73.48-.18,1.01.05,1.19.52.11.29.07.6-.09.84-.09.15-.24.27-.42.35-1.59.62-3.76,1.72-5.09,2.77-.66.52-1.11,1.02-1.2,1.44-.02.1-.06.28.22.56,1.95,1.96,8.17,1.48,10.4,1.13.46-.07.9.21,1.02.67.13.45-.11.91-.55,1.08-2.72,1.09-5.66,3.84-6.04,5.66-.12.59.07.88.24,1.06,1.34,1.35,7.25,1.72,10.66,1.64.18,0,.35.04.5.13Z"/>
                <path class="cls-6" d="M358.85,348.64c.19.13,3.18,2.09,6.51,3.16,1.84.6,3.79.93,5.42.52,1.35-.33,2.36-1.11,3.02-2.31,2.33-4.26-.83-8.96-2.92-11.38-.59.8-.91,1.26-.91,1.26,0,0-.28-.16-.78-.4,1.79,1.99,4.91,6.19,3.01,9.64-.4.74-1.01,1.21-1.85,1.41-3.15.78-8.63-2.21-10.48-3.43-.42-.28-.99-.17-1.27.26-.28.42-.16.99.26,1.27Z"/>
                <path class="cls-6" d="M368.21,373.21c.3.1.64.04.89-.19.38-.34.41-.92.07-1.29-1.82-2.03-2.6-4.25-2.33-6.6.7-6.02,7.9-11.12,7.98-11.17.41-.29.52-.86.23-1.27-.29-.41-.86-.52-1.27-.23-.32.23-7.96,5.63-8.75,12.46-.33,2.89.6,5.59,2.78,8.03.11.12.25.21.4.26Z"/>
                <g>
                  <g>
                    <rect class="cls-16" x="341.1" y="300.94" width="40.33" height="40.33" rx="3.32" ry="3.32" transform="translate(-98.95 173.37) rotate(-23.83)"/>
                    <path class="cls-6" d="M369.96,339.9s-.22-.12-.6-.32l1.21-.53c-.39.54-.61.85-.61.85Z"/>
                    <path class="cls-20" d="M380.77,365.95c-1.86.8-3.88,1.25-6.03,1.36l-6.57-14.87c.91.1,1.79.08,2.6-.12,1.06-.26,1.91-.79,2.54-1.6.28.58.72,1.03,1.33,1.31.19.09.39.16.63.22.49.12,1.07.16,1.7.14-.41.36-.76.72-1.04,1.11-.28.38-.47.77-.55,1.17-.12.56-.09,1.41.72,2.22,1.73,1.73,5.19,2.05,7.97,1.99-1.79,1.43-3.28,3.23-3.62,4.89-.17.82-.06,1.56.33,2.18Z"/>
                    <rect class="cls-1" x="341.1" y="315.89" width="40.33" height="10.44" transform="translate(-98.95 173.37) rotate(-23.83)"/>
                  </g>
                  <path class="cls-6" d="M363.55,283.17c3.88,8.79-.09,19.07-8.89,22.96-8.79,3.88-19.07-.09-22.96-8.89-3.88-8.79.09-19.07,8.89-22.96,8.79-3.88,19.07.09,22.96,8.89Z"/>
                  <path class="cls-3" d="M330.51,288.35h34.52c.63,0,1.15.52,1.15,1.15v1.29c0,.64-.52,1.15-1.15,1.15h-34.52c-.63,0-1.15-.52-1.15-1.15v-1.29c0-.63.52-1.15,1.15-1.15Z" transform="translate(-87.59 165.28) rotate(-23.84)"/>
                </g>
              </g>
              <path class="cls-20" d="M254.15,298.11l9.29,23.51c1.39,3.93,2.8,7.86,4.24,11.76,1.41,3.91,2.83,7.81,4.28,11.68,1.46,3.86,2.9,7.72,4.38,11.52,1.47,3.8,2.99,7.55,4.52,11.19,1.51,3.64,3.07,7.21,4.61,10.39.77,1.58,1.54,3.05,2.19,4.21l.44.76.18.31c.04.07.04.09.05.13.05.15.08.25.1.33.03.16-.03.24.03.39.06.15.28.35.77.56.97.43,3.07.75,5.71.62,2.64-.12,5.77-.65,9.03-1.48,3.27-.85,6.71-1.93,10.18-3.24,6.94-2.64,14.06-5.97,21.08-9.7,7.04-3.71,12.21-6.71,19.05-10.99,2.18,10.15,9.37,18.35,19.77,22.26-6.66,6.07-13.63,11.7-20.99,17.06-7.38,5.32-15.12,10.36-23.64,14.81-4.27,2.22-8.72,4.33-13.54,6.14-4.82,1.81-9.97,3.39-15.76,4.39-2.9.49-5.96.84-9.24.89-3.27.05-6.77-.18-10.43-.88-3.66-.71-7.49-1.91-11.2-3.75-3.71-1.82-7.23-4.27-10.24-7.1-1.51-1.41-2.89-2.9-4.14-4.43l-.9-1.14-.74-1c-.26-.34-.46-.64-.68-.96-.22-.31-.45-.64-.65-.93-1.64-2.43-2.99-4.64-4.25-6.81-2.49-4.31-4.62-8.41-6.67-12.49-2.03-4.08-3.9-8.13-5.75-12.16-1.83-4.03-3.61-8.05-5.31-12.09-1.7-4.03-3.38-8.05-5.01-12.09-1.61-4.04-3.2-8.08-4.76-12.12-1.53-4.05-3.06-8.1-4.53-12.17l-2.19-6.12-1.06-3.08c-.36-1.04-.7-2.04-1.07-3.15l42.86-15.01Z"/>
              <path class="cls-6" d="M361.92,392.17c.52,0,.99-.34,1.13-.87.17-.62-.2-1.27-.82-1.44-16.51-4.48-16.54-22.46-16.54-22.64,0-.65-.51-1.18-1.16-1.18h-.01c-.64,0-1.17.52-1.17,1.16,0,.2.03,19.98,18.27,24.92.1.03.21.04.31.04Z"/>
              <path class="cls-6" d="M354.16,388.48c.26,0,.52-.09.74-.27l10.81-8.86c.5-.41.57-1.15.16-1.65-.41-.5-1.15-.57-1.65-.16l-10.81,8.86c-.5.41-.57,1.15-.16,1.65.23.28.57.43.91.43Z"/>
              <path class="cls-6" d="M351.11,372.97c0,1.12.91,2.03,2.03,2.03s2.03-.91,2.03-2.03-.91-2.03-2.03-2.03-2.03.91-2.03,2.03Z"/>
              <g>
                <path class="cls-6" d="M279.44,395.87c.36,0,.71-.16.94-.47.04-.06,4.51-5.99,8.42-8.78.53-.38.65-1.11.27-1.64-.38-.53-1.11-.65-1.64-.27-4.2,3-8.74,9.02-8.93,9.28-.39.52-.28,1.25.23,1.64.21.16.46.23.7.23Z"/>
                <path class="cls-6" d="M287.41,397.04c.08,0,.17,0,.26-.03.63-.14,1.03-.77.89-1.4-.01-.05-1.09-5.04-.02-8.8.18-.62-.18-1.27-.81-1.45-.62-.18-1.27.18-1.45.8-1.24,4.34-.07,9.73-.02,9.95.12.55.61.92,1.14.92Z"/>
              </g>
            </g>
            <g>
              <path class="cls-9" d="M276.53,522.28c-21.7,12.49-74.17,18.93-108.4,5.34-12.56-4.99-14.76-8.05-13.81-30.59.03-.84.07-1.68.12-2.51.09-1.78.21-3.55.33-5.3.06-.85.13-1.7.2-2.54.26-3.15.56-6.23.89-9.2.09-.82.18-1.62.28-2.43.79-6.61,2.03-12.54,3.19-17.12.21-.83.42-1.61.62-2.35,1.21-4.5,2.2-7.2,2.2-7.2,5.52.89,11.2,1.41,16.92,1.64.81.03,1.62.06,2.42.08,29.6.78,59.72-5.92,73.68-9.55.84-.22,1.62-.43,2.34-.62,3.63-.97,5.67-1.61,5.67-1.61,0,0,1.28,2.24,3.08,5.94.33.68.68,1.42,1.04,2.19,2.84,6.1,6.47,14.95,8.53,24.18.03.11.05.23.08.34.17.8.35,1.6.52,2.4.03.16.07.32.1.49,1.42,6.7,2.71,13.73,3.58,20.44h0c.12.87.22,1.73.32,2.58,1.71,14.74,1.97,22.03-3.9,25.41Z"/>
              <path class="cls-3" d="M276.53,473.86c-.05-.02-.11-.05-.16-.08-4.41-2.4-8.3-6.04-11.64-10.86-.45-.65-.89-1.33-1.33-2.04h0c-3.37-5.45-6.12-12.24-8.23-20.32.84-.22,1.62-.43,2.34-.62,2.08,7.96,4.78,14.6,8.09,19.87.43.7.89,1.38,1.35,2.04,2.62,3.73,5.59,6.67,8.89,8.79.03.11.05.23.08.34.17.8.35,1.6.52,2.4.03.16.07.32.1.49Z"/>
              <path class="cls-6" d="M181.48,450.1c-.96,8.5-2.85,15.7-5.65,21.55-.37.77-.75,1.52-1.16,2.24-2.28,4.14-5.09,7.52-8.4,10.11-4.05,3.17-8.17,4.6-11.5,5.21.06-.85.13-1.7.2-2.54,2.92-.61,6.44-1.93,9.86-4.62,2.85-2.24,5.3-5.13,7.34-8.64.42-.72.82-1.46,1.2-2.23,2.82-5.66,4.72-12.73,5.69-21.17.81.03,1.62.06,2.42.08Z"/>
              <path class="cls-6" d="M267.3,446.45c-1.67.74-3.47,1.5-5.39,2.28-.74.3-1.5.61-2.28.91-11.17,4.36-25.8,8.85-41.59,10.47-.61.06-1.21.12-1.82.17-14.33,1.31-28.91.71-40.93-.42-.86-.08-1.71-.16-2.54-.25-5.07-.52-9.62-1.12-13.41-1.68.21-.83.42-1.61.62-2.35,3.88.57,8.56,1.18,13.78,1.71.82.08,1.66.16,2.5.24,12.25,1.11,27.1,1.66,41.55.17,15.41-1.59,29.7-5.94,40.66-10.2h0c.78-.3,1.53-.6,2.26-.9,1.98-.8,3.83-1.59,5.55-2.34.33.68.68,1.42,1.04,2.19Z"/>
              <g>
                <path class="cls-9" d="M268.66,776.07c6.79,24.38,14.07,50.75,19.43,70.2h34.17l-18.64-174.62-.31-2.94-.71-6.66c-1.43-62.78-9.37-121.93-22.49-167.75l-58.19,27.1c2.79,69.02,22.77,105.18,38.27,150.96,0,0-9.6,42.39,8.47,103.7Z"/>
                <path class="cls-3" d="M303.63,671.65c-2.43.43-5.03.71-7.73.71s-5.72-.3-8.64-1.02c-.78-.19-1.26-.98-1.06-1.77.19-.78.98-1.25,1.76-1.06,5.31,1.32,10.67,1.07,15.36.2l.31,2.94Z"/>
                <path class="cls-3" d="M274.42,771.79c4.64,19.03,10.97,43.91,16.31,64.72h2.51c-5.38-20.93-11.78-46.1-16.46-65.3-9.63-39.46-6.47-102.48-6.44-103.12,0-.21-.03-.42-.13-.61-32.81-64.99-37.66-129.53-37.7-130.17-.05-.66-.63-1.17-1.3-1.12-.67.04-1.17.63-1.13,1.29.04.65,4.91,65.48,37.81,130.81-.23,4.97-2.83,65.16,6.52,103.5Z"/>
              </g>
              <g>
                <path class="cls-9" d="M155.15,671.55c.11,3.42.22,6.89.34,10.39l2.73,164.33h32.42c3.8-22.76,9.47-56.7,14.97-89.56,9.76-58.33-.67-80.59-.67-80.59,0,0,12.72-114.91,13.66-144.73l-64.28-34.36s-14.94,51.55.74,171.42c.03,1.03.06,2.07.09,3.11Z"/>
                <path class="cls-3" d="M200.48,730.78c-1.41,9.47-9.57,66.24-15.25,105.73h2.46c5.8-39.46,14.1-95.9,15.51-105.33,3.59-24.07-3.78-54.67-4.56-57.79l16.6-137.04c.09-.76-.45-1.44-1.2-1.53-.76-.09-1.44.45-1.53,1.2l-16.63,137.29c-.02.17,0,.34.03.51.08.32,8.25,32.25,4.56,56.95Z"/>
                <path class="cls-3" d="M176.79,672.46c-2.92.73-5.83,1.03-8.65,1.03-4.77,0-9.24-.86-12.99-1.94-.03-1.04-.06-2.08-.09-3.11,5.71,1.76,13.42,3.09,21.03,1.2.78-.19,1.57.28,1.76,1.06.19.78-.28,1.57-1.06,1.76Z"/>
              </g>
              <g>
                <path class="cls-3" d="M224.2,523.5c.08.66.68,1.13,1.34,1.06t0,0c.66-.08,1.14-.68,1.06-1.35-.54-4.52-1.06-9.15-1.55-13.78-.09-.82-.17-1.63-.26-2.45-1.57-15.14-2.85-30.05-3.69-40.58-.07-.85-.13-1.68-.2-2.47-.18-2.31-.34-4.36-.47-6.1-.81,0-1.63.01-2.43.01.13,1.74.29,3.81.48,6.14.06.79.13,1.62.19,2.47.84,10.44,2.1,25.22,3.66,40.27.08.83.17,1.66.26,2.49.51,4.8,1.04,9.61,1.6,14.28Z"/>
                <path class="cls-3" d="M218.14,508.28c.4.12,2.21.64,4.45.94.78.11,1.62.18,2.46.21.77.02,1.55,0,2.31-.08,1.46-.16,2.83-.56,3.9-1.34,1.33-.97,2.05-2.44,2.08-4.25.09-4.77-1.28-24.16-2.32-37.87-.06-.84-.12-1.67-.18-2.46-.17-2.19-.32-4.19-.46-5.88-.81.04-1.62.07-2.43.1.13,1.7.29,3.72.46,5.94.06.79.12,1.62.19,2.46,1.03,13.67,2.41,33.03,2.32,37.66-.02,1.07-.36,1.81-1.09,2.34-1.16.84-3.08,1.04-5.04.94-.83-.04-1.67-.14-2.46-.26-1.45-.22-2.73-.54-3.5-.77-.64-.19-1.32.17-1.51.81-.19.64.17,1.32.81,1.51Z"/>
              </g>
            </g>
            <g>
              <path class="cls-3" d="M165.03,438.33l7.48,31.37c18.69-1.49,40.8-2.01,56.85-12.36,0,0,30.08,7.63,41.33,4.14l-15.53-23.16h-90.13Z"/>
              <g>
                <path class="cls-20" d="M274.84,461.55c-21.55-.15-34.49-2.94-46.25-12.56-22.04,22.9-76.49,23.78-76.49,23.78,5.45-17.59,7.22-48.69,7.22-48.69h0c-.87-6.47-.92-13.44-2.68-20.24-5.37-15.51-11.66-26.63-17.25-42.66-.36-1.04-.73-2.07-1.1-3.11-.24-.68-.49-1.35-.74-2.03-1.84-5.01-3.81-10.01-5.88-14.82-9.02-21.01-10.47-44.68,11.21-51.91,1.58-.52,3.09-1.16,4.64-1.5,10.35-2.32,22.61-3.42,24.99-3.99.43-.1,0,0,0,0l41.3,3.21,5.4-1.19c6.36.71,13.1.53,17.36,1.47,3.75.83,6.02.63,9.83,1.75,8.97,2.65,8.72,14.72,11.51,29.7.05.26.1.52.14.78.02.08.04.17.05.25.49,2.55,1.07,5.07,1.73,7.56.74,2.79,1.55,5.54,2.42,8.23,5.25,16.46,11.58,24.02,10.5,34.38-.98,9.38-10.55,22.18-13.09,24.91-.59.63-.93.96-.93.96,0,.05,0,.1.02.15.04.37.08.77.14,1.18.19,1.58.47,3.46.82,5.59,3.77,38.01,15.14,58.81,15.14,58.81Z"/>
                <path class="cls-6" d="M262.45,393.48c.31,0,.62-.12.85-.36.56-.59,13.71-14.62,9.13-27.43-1.27-3.56-2.75-7.15-4.32-10.95-4.76-11.55-10.16-24.64-11.55-41.62-.05-.65-.62-1.13-1.26-1.07-.65.05-1.13.62-1.07,1.26,1.42,17.35,6.89,30.62,11.72,42.33,1.56,3.78,3.03,7.35,4.28,10.85,4.1,11.44-8.49,24.89-8.62,25.03-.45.47-.43,1.21.04,1.66.23.22.52.32.81.32Z"/>
              </g>
              <g>
                <path class="cls-6" d="M224.2,343.45c0,1.41-1.14,2.56-2.56,2.56s-2.56-1.14-2.56-2.56,1.14-2.56,2.56-2.56,2.56,1.14,2.56,2.56Z"/>
                <path class="cls-6" d="M228,366.08c0,1.41-1.14,2.56-2.56,2.56s-2.56-1.14-2.56-2.56,1.14-2.56,2.56-2.56,2.56,1.14,2.56,2.56Z"/>
                <path class="cls-6" d="M230.28,389.09c0,1.41-1.14,2.56-2.56,2.56s-2.56-1.14-2.56-2.56,1.14-2.56,2.56-2.56,2.56,1.14,2.56,2.56Z"/>
                <path class="cls-6" d="M231.27,412.75c0,1.41-1.14,2.56-2.56,2.56s-2.56-1.14-2.56-2.56,1.14-2.56,2.56-2.56,2.56,1.14,2.56,2.56Z"/>
                <path class="cls-6" d="M231.15,437.37c0,1.41-1.14,2.56-2.56,2.56s-2.56-1.14-2.56-2.56,1.14-2.56,2.56-2.56,2.56,1.14,2.56,2.56Z"/>
              </g>
              <path class="cls-9" d="M172.51,283.81l-11.54,1.52-9.57,1.62,21.11,27.92,15.92-1.27-5.58,12.18,35.97,10.14s-41.66-39.56-44.99-53.86l-1.32,1.74Z"/>
              <path class="cls-3" d="M172.51,283.81s10.39,22.12,46.31,52.12c0,0-1.92-23.59-9.15-48.88,0,0-21.14,7.36-37.16-3.23Z"/>
              <path class="cls-6" d="M223.84,354.45c-11.83,0-35.97-16.94-36.99-17.67-.44-.31-.54-.92-.23-1.35.31-.44.92-.54,1.35-.23.25.17,24.66,17.31,35.87,17.31s13.11-11.72,13.13-11.84c.1-.53.61-.87,1.14-.77.53.1.87.61.77,1.14-.03.13-2.72,13.42-15.04,13.42Z"/>
              <path class="cls-11" d="M209.66,285.42l.49,6.13c.91,11.43-7.22,14.67-19.05,8.61-9.35-4.78-17.28-11.93-18.58-16.35l37.15,1.61Z"/>
              <path class="cls-6" d="M192.71,402.13c.19.34.55.53.91.53.18,0,.36-.04.52-.14.17-.1,17.26-9.73,38.13-5.65,10.6,2.07,19.61,1.86,26.61.29-.05-.41-.1-.81-.14-1.18,0-.05-.01-.1-.02-.15,0,0,.35-.34.93-.96-6.84,1.74-16,2.07-26.98-.07-21.66-4.23-38.86,5.48-39.58,5.9-.5.29-.68.93-.39,1.43Z"/>
              <path class="cls-9" d="M209.66,285.42s9.89-.89,16.82.95l-.75,25.97-5.91,1.27,4.98,4.9-5.97,17.42s-8.16-28.99-9.17-50.51Z"/>
            </g>
            <g>
              <g>
                <path class="cls-18" d="M221.8,237.93s5.39-6.36,8.43,0c3.04,6.36.7,19.24-7.49,17.13l-.94-17.13Z"/>
                <path class="cls-3" d="M218.77,253.04c-3.13,1.46-5.3,4.63-5.3,8.29,0,5.04,4.1,9.15,9.15,9.15s9.15-4.1,9.15-9.15c0-3.62-2.12-6.76-5.18-8.24-1.05-.51-2.21-.82-3.43-.89-.22-.57-.41-1.14-.65-1.7.04,0,.07,0,.11,0,1.5,0,2.93.31,4.23.86,3.88,1.65,6.6,5.5,6.6,9.97,0,5.97-4.86,10.83-10.83,10.83s-10.83-4.86-10.83-10.83c0-4.02,2.2-7.54,5.47-9.4l1.51,1.11Z"/>
                <g>
                  <path class="cls-11" d="M208.79,270.58l.71,17.33s-9.38,14.26-36.99-4.1c2.68-6.6,4.84-15.84,2.73-22.57,0,0,2.03.72,5.33,2.68.65.38,1.42.63,2.2.95,6.9,2.9,17.28,6.38,26.02,5.7Z"/>
                  <path class="cls-18" d="M208.79,270.58l.34,8.21c-7.51-1.67-21-5.76-28.56-14.87.68.31,1.42.63,2.2.95,6.9,2.9,17.28,6.38,26.02,5.7Z"/>
                </g>
                <path class="cls-11" d="M223.79,264.84c-14.74,15.25-47.46-2.95-48.51-3.54-.02,0-.03-.02-.03-.02-.3-1.36-.57-2.72-.82-4.06-2.08-11.34-2.21-21.88-1.06-31.89-.55-10.56,5.73-20.38,15.66-24,10.29-3.75,19.52.77,25.06,2.48,8.37,2.58,13.63,13.4,13.68,28.81.06,18.91-.33,28.43-3.99,32.22Z"/>
                <path class="cls-6" d="M218.04,218.61s-3.06.3-1.98,3.11c1.07,2.8,7.21-.29,11.6,4.88,0,0,1.87-6.73-9.62-7.99Z"/>
                <path class="cls-6" d="M204.18,218.61s3.06.3,1.98,3.11c-1.07,2.8-7.21-.29-11.6,4.88,0,0-1.87-6.73,9.62-7.99Z"/>
                <ellipse class="cls-18" cx="196.63" cy="240.48" rx="6.57" ry="2.58"/>
                <path class="cls-18" d="M229.95,242.99c-.51.05-1.04.08-1.58.08-3.62,0-6.56-1.16-6.56-2.59s2.94-2.58,6.56-2.58c.49,0,.97.02,1.43.06l.16,5.03Z"/>
                <g>
                  <path class="cls-6" d="M204.39,232.62c0,1.96-.89,3.55-1.99,3.55s-1.99-1.59-1.99-3.55.89-3.55,1.99-3.55,1.99,1.59,1.99,3.55Z"/>
                  <path class="cls-6" d="M223.79,232.62c0,1.96-.89,3.55-1.99,3.55s-1.99-1.59-1.99-3.55.89-3.55,1.99-3.55,1.99,1.59,1.99,3.55Z"/>
                  <path class="cls-6" d="M214.34,251.32c2.26,0,4.65-.73,6.81-2.85.32-.31.32-.82.01-1.14-.31-.32-.82-.32-1.14-.01-5.9,5.76-13.75-.56-14.09-.84-.34-.28-.85-.23-1.13.11-.28.34-.23.85.11,1.13.06.05,4.44,3.59,9.42,3.59Z"/>
                  <path class="cls-6" d="M215.05,240.1c.94,0,1.58-.16,1.63-.17.22-.06.4-.2.51-.4.11-.2.12-.43.05-.65l-2.98-8.55c-.15-.42-.61-.64-1.03-.5-.42.15-.64.61-.5,1.03l2.66,7.61c-.81.04-2.06-.04-3.3-.71-.39-.21-.88-.06-1.09.33-.21.39-.06.88.33,1.09,1.36.73,2.72.91,3.73.91Z"/>
                </g>
                <path class="cls-6" d="M181.65,253.35c-.09.22-2.67,6.2-6.38,7.95,0,0,0,0,0,0-.01-.01-.02-.02-.02-.02-.3-1.36-.57-2.72-.82-4.06.14-.02,3.88-.67,7.22-3.88Z"/>
                <path class="cls-11" d="M178.06,239.73s-7.84-10.53-13.58-2.25c-4.73,6.82,4.21,24.58,13.58,18.5v-16.24Z"/>
                <path class="cls-3" d="M169.94,255.84c-3.13,1.46-5.3,4.67-5.3,8.33,0,5.04,4.1,9.15,9.15,9.15s9.15-4.11,9.15-9.15c0-3.62-2.12-6.76-5.18-8.24-1.05-.51-2.21-.82-3.43-.89-.22-.57-.41-1.14-.65-1.7.04,0,.07,0,.11,0,1.5,0,2.93.31,4.23.86,3.88,1.65,6.6,5.5,6.6,9.97,0,5.97-4.86,10.83-10.83,10.83s-10.83-4.86-10.83-10.83c0-4.02,2.27-7.61,5.53-9.47.47.42.94.82,1.45,1.14Z"/>
                <path class="cls-6" d="M176.99,252.81s.06,0,.09,0c.44-.05.76-.45.71-.89-.98-8.95-8.51-12.05-8.83-12.18-.41-.16-.88.04-1.05.45-.16.41.04.88.45,1.05h0c.28.11,6.96,2.89,7.83,10.86.05.41.39.72.8.72Z"/>
                <path class="cls-6" d="M169.46,247.92c.18,0,.36-.06.51-.18.7-.57,2.83-1.97,4.22-1.61.43.11.87-.15.98-.58.11-.43-.15-.87-.58-.98-2.42-.62-5.31,1.66-5.64,1.92-.35.28-.4.79-.12,1.13.16.2.39.3.63.3Z"/>
              </g>
              <path class="cls-6" d="M171.76,214.85s10.73,9.79,15.25,7.37c4.52-2.42-2.78-11.29-2.78-11.29,0,0,15.9,8.61,22,5.84,6.1-2.77-4.85-10.19-4.85-10.19,0,0,12.13,10.8,19.04,10.16,6.91-.64,0-9.35,0-9.35,0,0,6.32,12.22,10.49,11.17,4.17-1.05-1.43-18.59-15.25-24.55-13.82-5.97-48.98-4.89-43.9,20.86Z"/>
              <path class="cls-6" d="M181.13,218.57s3.53,22.38-2.11,22.48c-5.64.1-11.32-8.61-7.26-26.2l9.37,3.72Z"/>
              <g>
                <path class="cls-3" d="M238.29,233.41l-10.43.36v1.45s.01,0,.02,0l10.46-.37c.4-.01.71-.35.7-.75-.01-.4-.33-.72-.75-.7Z"/>
                <g>
                  <path class="cls-3" d="M199.27,245.22c-6.74,0-12.23-5.49-12.23-12.23s5.49-12.23,12.23-12.23,12.23,5.49,12.23,12.23-5.49,12.23-12.23,12.23ZM199.27,222.21c-5.94,0-10.78,4.84-10.78,10.78s4.84,10.78,10.78,10.78,10.78-4.84,10.78-10.78-4.84-10.78-10.78-10.78Z"/>
                  <path class="cls-3" d="M228.14,245.22c-6.74,0-12.23-5.49-12.23-12.23s5.49-12.23,12.23-12.23,12.23,5.49,12.23,12.23-5.49,12.23-12.23,12.23ZM228.14,222.21c-5.94,0-10.78,4.84-10.78,10.78s4.84,10.78,10.78,10.78,10.78-4.84,10.78-10.78-4.84-10.78-10.78-10.78Z"/>
                  <path class="cls-3" d="M172.65,235.54c-.09,0-.17-.02-.26-.05-.37-.14-.56-.56-.42-.93,3.22-8.42,16.04-4.11,16.17-4.06.38.13.58.54.45.92-.13.38-.54.58-.92.45-.12-.04-11.63-3.9-14.35,3.21-.11.29-.39.47-.68.47Z"/>
                </g>
              </g>
              <path class="cls-3" d="M216.72,231.09c-.19,0-.37-.07-.52-.22-2.01-2.04-5.05-.31-5.08-.29-.35.2-.79.08-.99-.26-.2-.35-.08-.79.26-.99,1.39-.81,4.61-1.73,6.83.53.28.28.28.74,0,1.02-.14.14-.32.21-.51.21Z"/>
            </g>
            <g>
              <path class="cls-20" d="M160,327.8l-1.53,2.66-1.59,2.8c-1.07,1.87-2.13,3.76-3.18,5.66-2.1,3.8-4.17,7.62-6.23,11.45-2.04,3.84-4.07,7.68-6.05,11.54-1.97,3.86-3.91,7.73-5.82,11.61-1.89,3.88-3.72,7.78-5.52,11.67-1.79,3.9-3.5,7.81-5.16,11.72-1.64,3.91-3.22,7.82-4.7,11.74-1.45,3.91-2.8,7.82-4.05,11.69l.38-8.38c.66,4.55,1.95,9.2,3.7,13.86,1.75,4.66,4.01,9.29,6.66,13.81,1.33,2.26,2.75,4.48,4.26,6.67,1.51,2.19,3.08,4.35,4.74,6.46,3.32,4.22,6.94,8.23,10.75,11.97l.17.17c6.39,6.29,6.48,16.56.2,22.96-5.91,6.01-15.41,6.4-21.83,1.21-5.37-4.38-10.34-9.13-15.01-14.2-2.33-2.54-4.59-5.15-6.74-7.87-2.15-2.72-4.22-5.53-6.18-8.43-3.93-5.81-7.49-12-10.5-18.63-3.01-6.62-5.41-13.72-6.96-21.23-.53-2.54-.45-5.06.13-7.42l.25-.97c1.2-4.77,2.54-9.43,3.98-14.02,1.45-4.58,2.99-9.08,4.6-13.54,1.64-4.44,3.34-8.83,5.11-13.18,1.76-4.34,3.61-8.64,5.5-12.9,3.78-8.52,7.79-16.89,12-25.14,2.1-4.13,4.26-8.23,6.49-12.3,1.11-2.04,2.23-4.07,3.37-6.11.57-1.02,1.15-2.03,1.74-3.06l1.85-3.16c5.71-9.75,18.25-13.02,28-7.31,9.71,5.69,13,18.14,7.39,27.87l-.21.36Z"/>
              <g>
                <path class="cls-6" d="M113.99,479.85c-.1,0-.2-.01-.29-.04-.52-.16-.81-.71-.65-1.23,5.88-19.02,23.79-23,23.97-23.04.53-.11,1.06.23,1.17.76.11.53-.23,1.06-.76,1.17-.2.04-16.97,3.82-22.5,21.69-.13.42-.52.7-.94.7Z"/>
                <path class="cls-6" d="M121.82,477.09c.13.92-.52,1.77-1.44,1.9-.92.13-1.77-.52-1.9-1.44-.13-.92.52-1.77,1.44-1.9.92-.13,1.77.52,1.9,1.44Z"/>
                <path class="cls-6" d="M129.72,476.33c-.23,0-.47-.08-.66-.25l-9.28-8.3c-.41-.36-.44-.99-.08-1.39.36-.41.99-.44,1.39-.08l9.28,8.3c.41.36.44.99.08,1.39-.19.22-.46.33-.74.33Z"/>
              </g>
              <path class="cls-6" d="M141,364.51c-.16,0-.32-.04-.47-.12-.48-.26-.65-.86-.39-1.34l19.24-35.13c.26-.48.86-.65,1.34-.39.48.26.65.86.39,1.34l-19.24,35.13c-.18.33-.52.51-.87.51Z"/>
              <path class="cls-6" d="M156.54,337.28c-.41,0-.8-.26-.93-.67-.17-.52.1-1.08.62-1.25l8.33-2.8c.52-.17,1.08.1,1.25.62.17.52-.1,1.08-.62,1.25l-8.33,2.8c-.1.04-.21.05-.31.05Z"/>
              <g>
                <path class="cls-6" d="M103.74,418.24c-.48,0-.9-.35-.97-.84-.08-.54.29-1.04.83-1.12.35-.05,8.63-1.25,12.93-.49.54.09.89.61.8,1.14-.09.54-.61.89-1.14.8-3.99-.7-12.22.49-12.3.5-.05,0-.1.01-.14.01Z"/>
                <path class="cls-6" d="M116.36,417.75c-.24,0-.48-.09-.67-.26-1.84-1.68-7.59-5.54-7.65-5.58-.45-.3-.57-.92-.27-1.37.3-.45.92-.57,1.37-.27.24.16,5.94,3.98,7.88,5.76.4.37.43.99.06,1.39-.19.21-.46.32-.73.32Z"/>
              </g>
              <path class="cls-11" d="M159.15,469.52c1.51-.48,4.54-1.28,8.15-1.36,5.21-.12,9.89,2.7,12.55,3.55,2.66.85-.38,4.34-4.79,4.14-4.41-.2-7.91.37-9.57.82,0,0,5.35-.13,8.76,1.04,1.44.49,3.54,1.07,5.51,1.75.96.34,1.89.7,2.69,1.09,1.47.72,2.52,1.55,2.6,2.52.13,1.64-2.49,1.82-5.56,1.75-1.24-.03-2.55-.1-3.79-.13-.52-.01-1.03-.02-1.52-.02-4.45.04-6.53-.58-10.14.26,0,0,4.43.5,6.8,1.77.4.22.87.45,1.37.71.9.46,1.92.98,2.91,1.51,1.72.92,3.34,1.88,4.09,2.68,1.42,1.52-3.08,3.54-7.54,2.42-1.6-.4-2.95-.96-4.13-1.48-1.24-.54-2.32-1.01-3.33-1.18-.13-.02-.25-.03-.37-.05-.59-.05-1.17.02-1.76.26,0,0,1.14.6,2.49,1.41,0,0,0,0,.02.01.07.05.15.09.23.13.85.51,1.76,1.08,2.51,1.62,1.29.93,3.13,3.4,3.83,5.42.42,1.17.44,2.19-.24,2.67-.75.52-2.34-.02-4.24-.86-2.81-1.24-6.26-3.13-8.52-3.13-3.79,0-10.61-.25-20.18-1.35-7.71-.89-14.19-7.87-15.84-11.15-.4-.79-.97-1.64-.97-1.64,4.37-7.96,10.16-14.58,17.53-19.7,0,0,1.78-.94,4.08-1.94,2.23-.97,4.95-2,7.03-2.29.86-.12,1.67-.1,2.42.02l2.7.23-1.83,9.44,6.04-.94Z"/>
            </g>
          </g>
          <g>
            <path class="cls-3" d="M375.93,174.59h-66.13c-5.56,0-10.07,4.51-10.07,10.07v32.86c0,5.56,4.51,10.07,10.07,10.07h6.29v12.26l12.26-12.26h47.58c5.56,0,10.07-4.51,10.07-10.07v-32.86c0-5.56-4.51-10.07-10.07-10.07Z"/>
            <g>
              <path class="cls-8" d="M327.58,201.06c0,3.4-2.76,6.16-6.16,6.16s-6.16-2.76-6.16-6.16,2.76-6.16,6.16-6.16,6.16,2.76,6.16,6.16Z"/>
              <path class="cls-8" d="M349.03,201.06c0,3.4-2.76,6.16-6.16,6.16s-6.16-2.76-6.16-6.16,2.76-6.16,6.16-6.16,6.16,2.76,6.16,6.16Z"/>
              <path class="cls-8" d="M370.47,201.06c0,3.4-2.76,6.16-6.16,6.16s-6.16-2.76-6.16-6.16,2.76-6.16,6.16-6.16,6.16,2.76,6.16,6.16Z"/>
            </g>
          </g>
          <g class="cls-23">
            <path class="cls-5" d="M1108.87,692.43c8.23-44.39,30.21-86.89,65.24-116.04,17.63-14.68,38.32-25.17,60.68-30.37,26.41-6.14,53.97-5.09,80.64-1.31,13.47,1.91,26.71,4.96,40.13,7.13,13.21,2.13,27.09,3.05,39.86-1.73,12.23-4.58,22.16-13.53,31.61-22.26,9.89-9.13,19.78-18.32,28.73-28.38,8.76-9.85,16.62-20.6,22.11-32.63,5.06-11.1,7.79-23.03,10.89-34.77,2.96-11.2,6.21-22.57,12.32-32.51,6.16-10.04,14.99-17.02,25.61-21.91,11.19-5.15,23.26-8.35,33.82-14.83,9.48-5.81,17.5-13.66,24.05-22.61,13.58-18.56,21.09-41.04,27.02-63.03,1.46-5.41,2.84-10.84,4.21-16.27.31-1.23,2.27-.95,1.98.32-5.05,22.16-11,44.65-21.56,64.91-5.03,9.66-11.17,18.82-18.84,26.59-7.86,7.96-17.08,14.02-27.34,18.42-11.33,4.87-23.59,8.25-33.6,15.73-9.55,7.14-15.46,17.53-19.48,28.55-4.12,11.32-6.49,23.17-9.82,34.73-3.46,12-8.26,23.24-15.16,33.68-7.32,11.08-16.3,20.96-25.7,30.29-9.19,9.11-18.6,18.29-28.64,26.48-9.9,8.06-20.97,14.19-33.77,15.88-13.09,1.73-26.34-.54-39.18-2.99-26.72-5.11-53.71-9.46-81.02-7.86-25.12,1.47-49.53,8.29-70.91,21.73-38.71,24.32-65.08,65.69-76.81,109.34-1.45,5.38-2.87,10.79-3.89,16.27-.37,2.02-3.53,1.52-3.16-.5Z"/>
          </g>
          <g>
            <path class="cls-4" d="M1374.52,501.95c-3.12,8.13-5.52,16.52-7.19,25.07-.5,2.45-.92,4.91-1.27,7.38-2.57,17.54-2.12,35.52,1.4,52.88.56,2.83,1.21,5.64,1.96,8.42.08.34.17.68.26,1.02,7.18,26.46,22.05,52.5,42.55,71.34,2.96,2.69,6.02,5.25,9.19,7.64-1.25-2.39-2.46-4.74-3.62-7.07-8.91-18.01-14.36-34.63-10.46-53.89.38-1.98.88-3.99,1.49-6.02.76-2.61,1.7-5.26,2.83-7.98,4.61-11.14,11.12-21.31,18.14-31.15,1.78-2.48,3.57-4.93,5.39-7.38,2.1-2.85,4.23-5.7,6.34-8.53,9.04-12.23,17.86-24.79,24.9-38.23,1.13-2.15,2.21-4.32,3.23-6.51,1.2-2.51,2.31-5.07,3.35-7.66,4.19-10.44,7.05-21.3,8.83-32.39.28-1.71.53-3.42.74-5.14,1.96-15.1,2.01-30.54.69-45.75-.06-.66-.12-1.32-.18-1.98-.1-1.04-.21-2.08-.31-3.12-2.53-24.12-8.15-47.77-14.2-71.28-.9-3.48-1.8-6.95-2.7-10.42-.35,3.42-.84,6.81-1.49,10.18-4.07,21.11-13.89,40.8-25.64,59.25-.94,1.49-1.9,2.99-2.88,4.46-3.16,4.81-6.44,9.52-9.75,14.17-4.92,6.89-9.98,13.74-14.97,20.63-1,1.37-2,2.75-2.99,4.13-7.9,10.98-15.54,22.11-22.13,33.8-.92,1.62-1.81,3.25-2.69,4.9h0c-3.3,6.24-6.28,12.62-8.81,19.24Z"/>
            <path class="cls-7" d="M1395.87,567.9c-1.29,4.87-2.47,10.28-3.39,16.08l-25.16-56.96c-.5,2.45-.92,4.91-1.27,7.38l24.89,56.36.68-.38c-.83,7.41-1.12,15.31-.5,23.4l-23.67-26.51c.56,2.83,1.21,5.64,1.96,8.42l22.47,25.17c1.24,8.62,3.58,17.37,7.48,25.87,3.47,7.59,8.02,14.59,12.86,21.32,2.96,2.69,6.02,5.25,9.19,7.64-1.25-2.39-2.46-4.74-3.62-7.07-5.54-7.48-10.83-15.24-14.66-23.61-3.43-7.5-5.62-15.19-6.86-22.84l11.06-7.45c.38-1.98.88-3.99,1.49-6.02l-13.18,8.89c-1.19-10.35-.78-20.52.46-29.79,11.06-6.3,22.31-12.4,33.69-18.24,1.78-2.48,3.57-4.93,5.39-7.38-12.93,6.49-25.72,13.31-38.26,20.39.83-4.87,1.86-9.46,2.95-13.63,1.85-6.99,4.13-13.87,6.69-20.66l59.87-32.87c1.13-2.15,2.21-4.32,3.23-6.51l-60.73,33.35c5.09-12.62,11.03-24.94,16.84-37.01.87-1.79,1.73-3.59,2.59-5.39,17.47-10.75,35.39-21.14,53.48-31.01.28-1.71.53-3.42.74-5.14-17.19,9.33-34.24,19.16-50.94,29.31,6.52-13.77,13.36-28.95,19.38-44.94l.45-.44c9.76-9.52,20.28-19.34,31.81-29.67-.06-.66-.12-1.32-.18-1.98-.1-1.04-.21-2.08-.31-3.12-10.25,9.14-19.71,17.87-28.55,26.36,2.9-8.32,5.53-16.82,7.73-25.43,6.55-25.56,8.76-49.78,6.63-72.21-.9-3.48-1.8-6.95-2.7-10.42-.35,3.42-.84,6.81-1.49,10.18,2.18,22.14.03,46.09-6.45,71.43-2.22,8.69-4.89,17.25-7.83,25.66-3.4-12.69-7.2-25.33-11.37-37.83-.94,1.49-1.9,2.99-2.88,4.46,4.34,13.31,8.28,26.74,11.77,40.24-6.32,16.99-13.63,33.1-20.53,47.61-4.79-17.79-10.12-35.51-15.96-53.05-1,1.37-2,2.75-2.99,4.13,5.95,18.07,11.37,36.36,16.19,54.67-.77,1.6-1.54,3.19-2.3,4.79-5.33,11.01-10.73,22.24-15.52,33.74l-20.5-59.4c-.92,1.62-1.81,3.25-2.69,4.9h0s20.82,60.32,20.82,60.32c-3.21,8.13-6.05,16.42-8.28,24.87Z"/>
          </g>
          <g>
            <g>
              <path class="cls-2" d="M1281.1,349.07l-1.44,1.3-1.67,1.46c-1.13.98-2.29,1.96-3.47,2.93-2.34,1.95-4.75,3.84-7.17,5.69-4.86,3.68-9.84,7.14-14.89,10.2-5.03,3.1-10.17,5.75-15.22,7.87-2.53,1.06-5.03,1.91-7.46,2.6l-.91.26-.11.03-.06.02h-.03s.07,0,.07,0c.24-.05.48-.09.72-.12.24-.03.55-.07.82-.09.27-.02.59-.03.91-.04,1.26-.01,2.75.18,4.18.64,1.43.45,2.71,1.13,3.67,1.81.96.68,1.66,1.39,2.11,1.91.46.52.75.99.93,1.28l.12.21.09.18c.05.09.09.2.11.25l.03.09s0,.03.01.05c0,.05,0,.02,0,.04-.03,0-.14-.24-.25-.56-.11-.33-.24-.76-.36-1.25-.24-.99-.46-2.2-.64-3.49-.37-2.6-.61-5.53-.76-8.53-.15-3.01-.2-6.12-.21-9.27,0-3.15.04-6.35.14-9.56.1-3.21.23-6.45.39-9.7.16-3.25.37-6.5.57-9.77.21-3.26.44-6.53.71-9.8l.41-4.89.42-4.8.03-.34c.67-7.66-4.99-14.41-12.65-15.08-7.14-.62-13.49,4.26-14.86,11.12l-1.03,5.15c-.33,1.69-.64,3.39-.94,5.08-.61,3.39-1.19,6.77-1.74,10.18-.56,3.4-1.05,6.82-1.53,10.25-.47,3.43-.91,6.88-1.29,10.36-.76,6.96-1.36,13.99-1.54,21.38-.08,3.7-.07,7.48.21,11.56.15,2.05.37,4.17.75,6.48.19,1.16.43,2.37.74,3.66.32,1.3.7,2.67,1.27,4.23.15.4.29.78.47,1.2l.26.62.3.66c.19.42.44.91.68,1.36.12.23.27.49.4.73.14.25.28.48.45.75.61,1,1.42,2.14,2.43,3.29,1,1.15,2.33,2.42,3.98,3.58,1.65,1.16,3.69,2.23,5.92,2.92,2.23.7,4.57,1,6.66.97.53,0,1.06-.03,1.53-.07.48-.04,1-.09,1.44-.16.45-.07.9-.15,1.34-.24l.48-.1,1.53-.33c4.07-.92,7.99-2.06,11.73-3.41,7.49-2.66,14.41-6.01,20.96-9.67,6.54-3.69,12.71-7.73,18.61-12.06,2.96-2.16,5.83-4.4,8.67-6.72,1.42-1.16,2.82-2.35,4.22-3.57.7-.61,1.39-1.23,2.1-1.87l1.07-.98,1.2-1.13c7.44-6.99,7.81-18.7.82-26.14-6.9-7.34-18.39-7.8-25.84-1.09l-.54.49Z"/>
              <g>
                <path class="cls-6" d="M1237.21,390.55c.39,0,.75-.24.88-.63l3.93-11.68c.16-.48-.1-1.01-.58-1.17-.48-.16-1.01.1-1.17.58l-3.93,11.68c-.16.48.1,1.01.58,1.17.1.03.2.05.3.05Z"/>
                <path class="cls-6" d="M1234.21,387.65c.23,0,.46-.08.64-.25l5.84-5.52c.37-.35.39-.94.04-1.31-.35-.37-.94-.39-1.31-.04l-5.84,5.52c-.37.35-.39.94-.04,1.31.18.19.43.29.67.29Z"/>
              </g>
            </g>
            <g>
              <g>
                <g>
                  <path class="cls-20" d="M1282.72,272.29l11.25-11.02c.95-.93,2.22-1.44,3.55-1.43l13.48.14-.1,9.99-11.41-.12-8.29,8.12-.17,15.97c-.03,2.76-2.29,4.97-5.05,4.94-2.76-.03-4.97-2.29-4.94-5.05l.19-18.04c.01-1.32.55-2.59,1.5-3.52Z"/>
                  <rect class="cls-3" x="1309.21" y="257" width="4.63" height="15.17" transform="translate(2620.22 542.84) rotate(-179.4)"/>
                </g>
                <g>
                  <rect class="cls-6" x="1206.05" y="260.44" width="58.19" height="111.25" rx="1.16" ry="1.16" transform="translate(906.22 1547.86) rotate(-89.4)"/>
                  <path class="cls-3" d="M1220.17,352.19l27.07.28c2.64.03,4.81-2.09,4.83-4.73l.02-2.4-36.64-.38-.03,2.4c-.03,2.64,2.09,4.81,4.73,4.83Z"/>
                  <rect class="cls-6" x="1162.03" y="311.83" width="27.75" height="7.24" transform="translate(848.21 1488) rotate(-89.4)"/>
                  <path class="cls-3" d="M1290.93,301.46l5.45.06c.85,0,1.53.85,1.52,1.87l-.28,26.67c-.01,1.02-.71,1.85-1.56,1.84l-5.45-.06.32-30.38Z"/>
                  <path class="cls-6" d="M1146.53,278.87l-.76,72.55,5.71-2.58,3.57-1.62,11.42-5.17c4.29-2.44,9.29-12.72,9.29-12.72l.29-27.75s-4.79-10.38-9.03-12.91l-11.31-5.41-3.53-1.69-5.65-2.7Z"/>
                  <polygon class="cls-3" points="1152.19 281.57 1151.48 348.83 1155.05 347.22 1155.72 283.26 1152.19 281.57"/>
                  <g>
                    <rect class="cls-3" x="1231.66" y="239.18" width="5.67" height="74.7" transform="translate(945.11 1508.07) rotate(-89.4)"/>
                    <rect class="cls-20" x="1197.12" y="272" width="8.39" height="14.62" transform="translate(2399.64 571.14) rotate(-179.4)"/>
                    <rect class="cls-20" x="1244.14" y="259.47" width="42.36" height="13.27" transform="translate(986.04 1528.58) rotate(-89.4)"/>
                    <rect class="cls-3" x="1246.81" y="243.99" width="6.54" height="17.5" transform="translate(984.31 1500.12) rotate(-89.4)"/>
                    <rect class="cls-6" x="1209.61" y="224.74" width="20.38" height="55.37" rx="5.51" ry="5.51" transform="translate(954.67 1469.53) rotate(-89.4)"/>
                  </g>
                  <path class="cls-3" d="M1279.06,332.4l-90.28-.94c-.26,0-.46-.21-.46-.47l.32-30.81c0-.12.05-.24.14-.33.09-.09.2-.14.33-.13l90.28.94c.26,0,.46.21.46.47l-.32,30.81c0,.12-.05.24-.14.33-.09.08-.2.13-.32.13h0ZM1189.56,300.65l-.31,29.88,89.36.93.31-29.88-89.36-.93Z"/>
                </g>
              </g>
              <path class="cls-11" d="M1247.13,287.1l4.07.04s-5.12-7.49-11.84-6.3c-6.72,1.19-15.12,1.48-19.15,1.76-4.02.28-12.43-.77-14.79,1.43-2.36,2.2-2.47,5.23-1.45,10.36,1.02,5.13,4.17,4.69,5.6,1.99,1.59-3,2.7-7.39,2.7-7.39,0,0,.49,1.71,1.02,8.12.57,6.75,4.71,5.48,6.07,2.31,1.89-4.4,3.36-12.05,3.36-12.05,0,0,.36,7.17.57,11.8.2,4.63,5.76,2.97,6.59-4.49.83-7.46,1.92-7.25,1.92-7.25,0,0,.77,2.04.77,7.68,0,5.64,2.93,8.82,4.87,5.71,1.92-3.06,2.39-13.8,2.39-13.8l3.04.03c2,.02,2.79.16,4.24.04Z"/>
            </g>
            <g>
              <g>
                <path class="cls-20" d="M1322.3,581.5l1.62,4.35,52.53,141.46c0,58.45,26.42,163.88,26.42,163.88l31.66-1.5-8.68-164.86-.12-2.26c-.05-.2-.1-.41-.16-.62-8.12-32.47-25.02-113.59-36.51-152.71-.32-1.1-.63-2.17-.94-3.19-1.83-6.22-3.24-11.01-4.08-13.87-.58-1.95-.89-3-.89-3l-8.88,4.72-2.55,1.35-49.42,26.25Z"/>
                <path class="cls-3" d="M1406.18,890.63c.09,0,.19,0,.28-.03.77-.16,1.28-.91,1.12-1.68-.14-.69-13.89-68.99-17.66-89.99-3.75-20.91-5.33-75.8-5.35-76.36,0-.19-.05-.37-.12-.54-8.92-19.96-49.75-131.65-50.17-132.78-.27-.74-1.09-1.13-1.84-.85-.74.27-1.12,1.09-.85,1.84.41,1.12,40.93,111.97,50.13,132.7.13,4.33,1.73,56.16,5.38,76.5,3.78,21.03,17.53,89.36,17.67,90.05.14.68.73,1.15,1.4,1.15Z"/>
              </g>
              <path class="cls-20" d="M1259.14,570.24c10.07,6.72,33.01,12.19,56.23,14.79,29.93,3.35,60.35,1.93,64.28-7.7.44-1.09.85-2.22,1.21-3.41,0-.03.02-.07.03-.1.27-.87.52-1.77.74-2.68.41-1.64.75-3.34,1.05-5.08.17-1.01.33-2.04.46-3.08,2.11-15.95.26-33.47.26-33.47l-113.58-23.84s-11.21,32.42-12.98,51.51c-.1,1.05-.16,2.06-.2,3.02-.19,5,.48,8.7,2.49,10.04Z"/>
              <path class="cls-20" d="M1256.49,562.54c0,.89.02,1.77.02,2.66.01,2.09.04,4.17.06,6.24.01,1.08.02,2.15.04,3.22,0,.15,0,.29,0,.44,0,.99.02,1.97.03,2.96.77,64.33,3.03,123.11,7.66,165.3v.02l.52,2.89,25.9,145.88,33.34-2.82s-1.21-115.51-8.55-141.87l.14-161.69v-23.27s-44.92,4.73-44.92,4.73l-2.8-.92-1.65-.54-2.74-.9-7.05-2.31Z"/>
              <path class="cls-3" d="M1317.51,880.28c-.06,0-.11,0-.17,0-.77,0-1.39-.64-1.38-1.4.78-97.39-11.43-135.99-11.55-136.36-.05-.15-.07-.3-.07-.45l2.43-154.47c.01-.77.65-1.39,1.42-1.37.77.01,1.38.65,1.37,1.42l-2.43,154.25c1.02,3.36,12.37,42.99,11.62,137.02,0,.71-.54,1.29-1.23,1.37Z"/>
              <path class="cls-3" d="M1256.65,560.2c.12-.03.23-.06.31-.09,2.07-.7,4.04-1.66,5.93-2.88.5-.32.99-.66,1.47-1.01,1.82-1.32,3.45-2.83,4.92-4.45,9.19-10.08,11.94-24.32,12.07-25.04.14-.76-.36-1.48-1.11-1.62-.76-.14-1.49.36-1.63,1.11-.03.17-2.84,14.73-12.01,24.32-1.35,1.42-2.85,2.73-4.49,3.87-.24.16-.48.33-.73.49-1.45.93-2.96,1.69-4.53,2.29-.1,1.05-.16,2.06-.2,3.02Z"/>
              <path class="cls-3" d="M1304.08,578.99c-.03.61.46,1.14,1.1,1.18t0,0c.64.03,1.18-.45,1.21-1.06.2-4.2.45-8.5.72-12.8.05-.76.09-1.51.15-2.27.91-14.04,2.07-27.82,2.95-37.55.07-.79.14-1.55.21-2.28.2-2.14.37-4.03.52-5.63-.77-.12-1.54-.24-2.3-.37-.15,1.6-.33,3.52-.52,5.67-.07.73-.14,1.5-.21,2.28-.87,9.65-2.02,23.31-2.93,37.26-.05.77-.1,1.54-.15,2.31-.28,4.45-.54,8.91-.75,13.26Z"/>
              <path class="cls-3" d="M1300.77,564.18c.36.17,1.99.93,4.06,1.55.72.22,1.5.42,2.29.58.73.14,1.47.24,2.2.29,1.41.08,2.76-.07,3.9-.61,1.41-.67,2.33-1.9,2.64-3.55.84-4.33,2.62-22.21,3.81-34.86.08-.78.15-1.54.22-2.27.19-2.02.36-3.86.5-5.43-.77-.09-1.54-.19-2.31-.29-.14,1.57-.31,3.43-.51,5.49-.07.73-.14,1.49-.21,2.27-1.2,12.62-2.96,30.47-3.78,34.67-.18.97-.63,1.59-1.4,1.96-1.23.59-3.07.46-4.91.06-.78-.17-1.56-.39-2.29-.62-1.33-.43-2.49-.92-3.19-1.25-.58-.28-1.27-.05-1.55.5-.28.55-.05,1.23.53,1.5Z"/>
              <path class="cls-3" d="M1365.21,540.48c.13.5,2.11,7.67,6.51,14.78,2.68,4.34,6.26,8.65,10.86,11.41.53.32,1.08.62,1.64.9,1.57.78,3.18,1.33,4.84,1.68-.32-1.1-.63-2.17-.94-3.19-.9-.27-1.78-.62-2.65-1.05-.84-.41-1.64-.89-2.41-1.41-3.62-2.46-6.53-6.04-8.8-9.68-4.29-6.91-6.26-14.06-6.29-14.18-.21-.76-.99-1.21-1.75-1.01-.76.21-1.22.99-1.01,1.75Z"/>
            </g>
            <g>
              <g>
                <path class="cls-9" d="M1261.19,534.17s.06.06.09.09c2.36,2.2,5.04,4.29,7.98,6.26.1.07.19.12.28.18.94.63,1.91,1.24,2.91,1.83.8.49,1.61.96,2.44,1.42.43.25.87.48,1.31.72.83.45,1.68.88,2.55,1.31,6.82,3.39,14.55,6.21,22.84,8.3.75.2,1.51.38,2.29.55.55.13,1.11.26,1.66.38.76.17,1.53.33,2.3.48.91.19,1.83.36,2.76.52.76.14,1.52.27,2.29.39.47.08.94.15,1.42.22.77.12,1.53.23,2.31.33,7.65,1.02,15.59,1.41,23.58,1.07,1.09-.05,2.18-.1,3.28-.18,1.67-.11,3.35-.26,5.02-.44,1.07-.11,2.15-.24,3.22-.39.17-.02.34-.04.51-.07.07,0,.14-.02.2-.03.88-.12,1.76-.26,2.63-.4,4.72-.77,9.42-1.81,14.03-3.17.46-.13.92-.27,1.38-.41.94-.28,1.87-.58,2.8-.9,2.6-.87,5.18-1.85,7.71-2.94.66-.28,1.32-.57,1.98-.86.39-.18.79-.36,1.19-.54.42-.2.84-.4,1.25-.6.07-.03.15-.07.22-.1,4.8-13.1,10.07-59.88,11.49-73.87.28-2.79.51-5.57.69-8.35.5-7.59.66-15.2.58-22.95-.06-5.95-.26-11.97-.54-18.12-.04-.77-.07-1.53-.11-2.31-.14-2.82-.29-5.66-.46-8.53-.04-.66-.08-1.31-.12-1.97,0-.15-.01-.31-.03-.47,0-.12-.01-.24-.02-.35-.14-2.25-.28-4.51-.43-6.8-.24-3.86-.5-7.78-.76-11.77-.14-2.18-.28-4.37-.42-6.59-.88-14-3.86-25.03-8.82-32.49-1.25-1.88-2.63-3.53-4.13-4.95-1.09-1.03-2.24-1.93-3.46-2.71-2.51-1.61-5.29-2.66-8.34-3.15-2.78-.44-5.33-1.02-7.63-1.68-.43-.12-.85-.24-1.26-.37-1.3-.4-2.52-.83-3.67-1.27-1.33-.51-2.55-1.04-3.66-1.57-.18-.08-.35-.16-.52-.24-.3-.15-.59-.29-.88-.44-.01,0-.03-.01-.04-.02-.78-.4-1.51-.79-2.17-1.17-1.97-1.11-3.43-2.1-4.29-2.71-.61-.44-.92-.69-.92-.69h-32.78c-.26.37-.52.73-.79,1.08-.02.03-.04.05-.05.07-.43.55-.86,1.07-1.32,1.56-.85.92-1.74,1.74-2.67,2.48-1.19.96-2.45,1.78-3.75,2.49-.54.3-1.08.58-1.63.84-.42.21-.85.4-1.28.59-.45.19-.89.37-1.35.55-1.07.42-2.16.79-3.24,1.15,0,0-.02,0-.03.01-6.76,2.15-13.6,3.26-18.22,7.15-.81.68-1.56,1.45-2.22,2.33h0c-1.34,1.79-2.35,4.02-2.92,6.86-.16.79-.25,1.66-.28,2.61-.24,7.26,2.85,19.31,4.1,39.16.41,6.44.62,13.71.47,21.9-.04,2.08-.1,4.22-.2,6.41-.02.66-.05,1.32-.09,1.98-.06,1.36-.14,2.73-.22,4.13h0c-.09,1.41-.18,2.84-.29,4.29-.2,2.7-.45,5.49-.73,8.35-.25,2.51-.53,5.08-.85,7.73-.33,2.7-.69,5.47-1.1,8.32-1.62,11.31-5.24,33.76-9.06,52.62-.6,2.97-1.21,5.84-1.81,8.58-.06.29-.12.57-.18.85-.67,3.04-1.35,5.88-2,8.45Z"/>
                <g>
                  <path class="cls-6" d="M1303.61,531.02c5.08,0,10.09-.5,15.02-1.49,10.69-2.16,20.99-6.65,30.63-13.34,16.39-11.38,25.3-25.44,25.39-25.58.27-.43.14-1-.29-1.28-.43-.27-1-.14-1.28.29-.09.14-8.83,13.91-24.93,25.08-14.8,10.27-39.05,20.37-70.52,10.2-.49-.16-1.01.11-1.16.6-.16.49.11,1.01.6,1.16,8.98,2.9,17.86,4.36,26.55,4.36Z"/>
                  <path class="cls-6" d="M1306.64,512.5c12.31,0,21-6.16,26.49-12.06,7.52-8.08,10.71-17.15,10.84-17.53.17-.48-.09-1.01-.57-1.18-.48-.17-1.01.09-1.18.57-.03.09-3.22,9.13-10.49,16.92-9.66,10.35-21.6,13.71-35.49,10-.49-.13-1,.16-1.13.65-.13.49.16,1,.65,1.13,3.89,1.04,7.51,1.5,10.86,1.5Z"/>
                </g>
                <path class="cls-6" d="M1378.41,546.87c.37,0,.73-.23.87-.6,10.36-27.51,13.28-65.07,13.9-91.73.67-28.86-1.12-51.54-1.14-51.76-.04-.51-.47-.9-1-.85-.51.04-.89.49-.85,1,.07.9,7.01,90.48-12.66,142.69-.18.48.06,1.01.54,1.19.11.04.22.06.33.06Z"/>
                <g>
                  <path class="cls-6" d="M1323.5,356.46c.02,1.12.94,2.01,2.06,1.99,1.12-.02,2.01-.94,1.99-2.06-.02-1.12-.94-2.01-2.06-1.99-1.12.02-2.01.94-1.99,2.06Z"/>
                  <path class="cls-6" d="M1323.12,366.12c.02,1.12.94,2.01,2.06,1.99,1.12-.02,2.01-.94,1.99-2.06-.02-1.12-.94-2.01-2.06-1.99-1.12.02-2.01.94-1.99,2.06Z"/>
                  <path class="cls-6" d="M1322.58,376.91c.02,1.12.94,2.01,2.06,1.99,1.12-.02,2.01-.94,1.99-2.06-.02-1.12-.94-2.01-2.06-1.99-1.12.02-2.01.94-1.99,2.06Z"/>
                </g>
              </g>
              <g>
                <path class="cls-6" d="M1342.92,317.51s-1.66,13.82,6.4,9.21c5.93-3.39,2.76-7.73,8.93-11.46,2.51-1.52,9.61-3.77,9.09-11.1-.52-7.33-4.87-8.76-1.27-11.37,3.6-2.61,10.19-9.42,2.06-18.31-8.13-8.89,2.99-15.24-8.3-21.28-11.3-6.04-17.33-2.11-26.31-8.92-8.98-6.81-17.97-10.13-25.18-7.23-9.86,3.96-4.18,24.58,3.02,26.4,7.2,1.82,31.56,54.06,31.56,54.06Z"/>
                <g>
                  <path class="cls-11" d="M1314.78,323.77l-1.16,8.12c.84.9,1.7,1.71,2.59,2.42,12.89,10.48,29.6,2.18,29.6,2.18l4.02-28.15-30.87,13.59-4.18,1.84Z"/>
                  <path class="cls-3" d="M1346.63,332.32s10.18-1.01,14.08,7.05c0,0-9.14,11.06-28.99,19.39l-3.91-19.42s10.56,1.01,18.82-7.02Z"/>
                  <path class="cls-18" d="M1314.78,323.77l-1.16,8.12c.84.9,1.7,1.71,2.59,2.42,12.68-3.04,23.22-14.38,23.22-14.38l-20.47,2-4.18,1.84Z"/>
                  <path class="cls-3" d="M1313.62,330.85s-7.29,1.43-12.18,9.89c0,0,1.92,2.81,18.15,16.94l8.22-18.34s-8.15-1.24-14.19-8.48Z"/>
                </g>
                <path class="cls-17" d="M1309.78,286.33s-3.83-6.11-7.22-1.03c-3.39,5.08-2.96,16.39,4.32,15.59l2.9-14.56Z"/>
                <path class="cls-6" d="M1309.25,260.35s-5.62,1.13-4.19,7.56c1.43,6.43,1.02,7.63-.34,11.23-1.36,3.6,1.18,7.07,2.32,6.85,1.14-.21,15.39-26.38,2.22-25.64Z"/>
                <path class="cls-11" d="M1302.13,304.74s-2.42,16.78,15.04,19.24c17.36,2.45,31.13-9.49,31.83-10.03.01,0,.02-.01.02-.01l.69-3.5,3.6-18.17,1.93-9.71s4.74-17.31-11.55-22.91c-11.9-4.1-23.67-3.71-30.37,1.85-.22.18-.43.36-.63.56-2.14,1.98-3.7,4.55-4.47,7.74l-3.05,17.5-.75,4.29-2.3,13.17Z"/>
                <path class="cls-6" d="M1339.23,278.67h0c-1.17,1.84-3.59,2.4-5.44,1.27-1.08-.66-2.38-1.34-3.77-1.86-1.97-.73-2.94-2.96-2.1-4.89h0s8.24.42,11.31,5.49Z"/>
                <path class="cls-6" d="M1307.65,274.15h0c.61,2.09,2.77,3.31,4.87,2.74,1.23-.33,2.66-.63,4.14-.73,2.1-.15,3.65-2.02,3.39-4.11h0s-8.02-1.91-12.4,2.1Z"/>
                <path class="cls-6" d="M1315.56,301.04c-2.02-.29-4.08-1.17-5.99-2.99-.28-.27-.29-.71-.02-.99.27-.28.71-.29.99-.02,6.83,6.51,16.05-.75,16.14-.82.3-.24.74-.19.98.11.24.3.19.74-.11.98-.08.06-5.85,4.6-11.99,3.73Z"/>
                <path class="cls-3" d="M1294.56,286.01c-.65-6.34,3.97-12.04,10.32-12.69,6.34-.65,12.04,3.97,12.69,10.32.66,6.35-3.97,12.04-10.32,12.69-6.34.65-12.04-3.97-12.69-10.32ZM1296.24,285.84c.56,5.42,5.42,9.37,10.84,8.81,5.42-.56,9.37-5.42,8.81-10.84-.56-5.42-5.42-9.37-10.84-8.81-5.42.56-9.37,5.42-8.81,10.84Z"/>
                <path class="cls-6" d="M1319.51,293.82c-4.09-.59-5.06-3.64-5.1-3.77-.06-.2-.03-.42.09-.59,3.63-5.38,7.33-10.92,7.36-10.97.21-.32.65-.41.97-.19.32.21.41.65.19.97-.04.05-3.59,5.39-7.16,10.67.31.64,1.3,2.15,3.85,2.51.38.05.65.41.59.79-.05.38-.41.65-.79.59Z"/>
                <path class="cls-3" d="M1320.03,289.84c-.65-6.34,3.97-12.04,10.32-12.69,6.34-.65,12.04,3.97,12.69,10.32.65,6.34-3.97,12.04-10.32,12.69-6.34.65-12.04-3.97-12.69-10.32ZM1321.71,289.67c.56,5.42,5.42,9.37,10.84,8.81,5.42-.56,9.37-5.42,8.81-10.84-.56-5.42-5.42-9.37-10.84-8.81-5.42.56-9.37,5.42-8.81,10.84Z"/>
                <path class="cls-3" d="M1321.82,285.25c.14-.03.27-.1.39-.2.34-.32.36-.85.04-1.19-.1-.1-2.37-2.49-5.77-1.08-.43.18-.64.67-.46,1.1.18.43.67.64,1.1.46,2.33-.97,3.87.65,3.89.67.21.23.52.31.81.25Z"/>
                <path class="cls-6" d="M1312.7,262.04c2.88-.58,4.73.61,8.73,3.09,5.78,3.59,13.03,2.14,19.57-.11,6.54-2.24,9.58,2.61,7.1,5.16-2.48,2.55-2.59,4.88-.8,8.84,1.79,3.95-5.12,4.69-1.84,8.06,1.38,1.42,1.03,3.2.17,4.78-.94,1.72.39,3.81,2.35,3.73h0c2.06-.22,5.36-3.34,5.36-3.34l1.93-9.71s4.74-17.31-11.55-22.91c-11.9-4.1-23.67-3.71-30.37,1.85-.22.18-.43.36-.63.56Z"/>
                <path class="cls-3" d="M1342.29,288.87c.1.02.21.02.32,0,6.79-1.15,11.9,2.49,11.95,2.52.38.27.91.19,1.18-.19.27-.38.19-.91-.19-1.18-.23-.17-5.74-4.09-13.22-2.82-.46.08-.77.51-.69.97.06.35.33.62.66.69Z"/>
                <path class="cls-18" d="M1327.64,292.69c-.17,1.22,2.2,2.57,5.31,3.02,3.1.44,5.76-.19,5.94-1.41.17-1.22-2.2-2.57-5.31-3.02-3.1-.44-5.76.19-5.94,1.41Z"/>
                <path class="cls-18" d="M1304.43,291.57c.43.11.88.19,1.35.26,3.1.44,5.76-.19,5.94-1.41.17-1.22-2.2-2.57-5.3-3.02-.42-.06-.83-.1-1.23-.12l-.75,4.29Z"/>
                <g>
                  <path class="cls-6" d="M1327.58,285.82c-.24,1.68.33,3.15,1.27,3.28.94.13,1.89-1.12,2.13-2.8.24-1.68-.33-3.15-1.27-3.28-.94-.13-1.9,1.12-2.14,2.8Z"/>
                  <path class="cls-6" d="M1310.97,283.45c-.24,1.68.33,3.15,1.27,3.28.94.13,1.9-1.12,2.14-2.8.24-1.68-.33-3.15-1.27-3.28-.94-.13-1.9,1.12-2.14,2.8Z"/>
                </g>
                <path class="cls-6" d="M1344.51,306.35c.05.2,1.53,5.64,4.49,7.59.01,0,.02-.01.02-.01l.69-3.5s-2.69-.86-5.21-4.08Z"/>
                <path class="cls-11" d="M1349.25,295.13s8-8.06,11.9-.27c3.22,6.42-6.62,20.54-13.89,14.18l1.99-13.91Z"/>
                <path class="cls-6" d="M1348.57,306.46s-.05,0-.08-.01c-.37-.1-.6-.48-.5-.85,1.93-7.55,8.77-9.28,9.06-9.35.37-.09.75.14.84.51.09.37-.14.75-.51.84h0c-.26.06-6.31,1.63-8.03,8.34-.09.35-.43.57-.77.52Z"/>
                <path class="cls-6" d="M1355.61,303.19c-.15-.02-.3-.09-.41-.22-.53-.57-2.18-2.03-3.42-1.89-.38.04-.73-.23-.77-.62-.04-.38.24-.73.62-.77,2.15-.23,4.35,2.07,4.59,2.33.26.28.24.72-.04.99-.16.15-.37.21-.57.18Z"/>
              </g>
            </g>
            <g>
              <path class="cls-9" d="M1356.14,359.09c.03-.13-.03-.02-.06,0l-.12.15-.27.36-.57.81-1.19,1.71c-.81,1.16-1.63,2.33-2.47,3.49-1.67,2.33-3.39,4.61-5.13,6.8-3.48,4.39-7.11,8.43-10.77,11.85-3.66,3.43-7.38,6.19-10.94,8.16-1.79,1-3.55,1.79-5.3,2.42-.88.31-1.75.59-2.64.82-.88.24-1.78.41-2.69.55l-.68.1c-.13.02-.26.04-.4.07-.27.03-.54.08-.83.1-.57.06-1.19.09-1.88.03-1.37-.12-3.02-.42-4.87-1.08-3.7-1.28-8.1-3.79-12.46-7.06-4.38-3.26-8.81-7.21-13.12-11.51-1.08-1.07-2.15-2.18-3.22-3.29-1.07-1.12-2.13-2.25-3.19-3.39-1.05-1.15-2.11-2.3-3.14-3.46l-1.55-1.73-.75-.85-.37-.4-.17-.18-.08-.08-.05-.03-6.44-3.32c-6.21-3.2-13.84-.76-17.05,5.45-1.71,3.31-1.79,7.07-.58,10.3l.1.26.07.2.13.38.24.72.5,1.38c.33.91.67,1.8,1.02,2.69.7,1.77,1.43,3.52,2.22,5.24.78,1.73,1.6,3.43,2.46,5.12.85,1.7,1.76,3.37,2.71,5.03,3.79,6.65,8.21,13.13,13.68,19.29,2.74,3.08,5.75,6.07,9.11,8.92,3.4,2.82,7.12,5.56,11.41,7.9,2.14,1.18,4.38,2.29,6.78,3.26,2.39.98,4.93,1.8,7.56,2.47,2.64.67,5.41,1.14,8.23,1.42,1.41.15,2.84.19,4.28.22l2.16-.02,1.87-.1c2.48-.15,4.97-.43,7.42-.85,1.23-.2,2.45-.46,3.67-.72,1.21-.29,2.42-.58,3.6-.93,2.39-.67,4.71-1.49,6.97-2.4,2.27-.9,4.44-1.95,6.56-3.05,4.22-2.23,8.12-4.79,11.68-7.58,1.79-1.39,3.49-2.85,5.11-4.34,1.62-1.5,3.2-3,4.66-4.58,5.93-6.26,10.72-13.03,14.69-20.04,1.99-3.51,3.74-7.09,5.31-10.76.39-.92.76-1.85,1.13-2.78.36-.94.71-1.88,1.05-2.83.34-.96.66-1.92.98-2.92l.47-1.53.23-.81.13-.44c.05-.18.07-.26.18-.59,3.86-9.78-.94-20.85-10.72-24.71-9.78-3.86-20.85.94-24.71,10.72Z"/>
              <path class="cls-6" d="M1258.86,408.4c.21,0,.41-.07.58-.21.4-.32.46-.91.13-1.3-.09-.11-8.62-10.66-12.98-21.65-.19-.47-.72-.71-1.2-.52-.47.19-.71.73-.52,1.2,4.47,11.26,13.18,22.02,13.27,22.13.18.22.45.34.72.34Z"/>
              <g>
                <path class="cls-6" d="M1324.48,455.25c.37,0,.74-.01,1.1-.04,25.64-1.73,59.92-49.78,61.36-51.82.29-.42.2-.99-.22-1.29-.42-.29-.99-.2-1.29.22-.35.49-35.22,49.37-59.98,51.05-15.58,1.03-43.4-23.65-43.68-23.9-.38-.34-.97-.31-1.31.07-.34.38-.31.97.07,1.31,1.14,1.02,27.49,24.4,43.94,24.4Z"/>
                <path class="cls-6" d="M1379.42,412.68s.1,0,.15-.01l6.77-1.12c.5-.08.85-.56.76-1.06-.08-.5-.55-.84-1.06-.76l-6.77,1.12c-.5.08-.85.56-.76,1.06.07.45.47.77.91.77Z"/>
              </g>
              <path class="cls-6" d="M1324.52,409.64c.19,0,.38-.06.55-.18,12.25-8.93,36.06-43.41,37.07-44.88.29-.42.18-1-.24-1.29-.42-.29-1-.18-1.29.24-.24.35-23.99,34.74-36.14,44.06-2.68-1.63-15.08-9.36-25.07-18.53-.38-.35-.96-.32-1.31.06-.35.38-.32.96.06,1.31,11.35,10.43,25.76,18.99,25.9,19.08.15.09.31.13.47.13Z"/>
              <path class="cls-6" d="M1334.58,412.68c.3,0,.6-.15.78-.42.28-.43.15-1-.28-1.28-3.8-2.45-10.2-3.15-10.47-3.18-.52-.06-.96.31-1.02.82-.05.51.31.96.82,1.02.06,0,6.24.69,9.66,2.9.16.1.33.15.5.15Z"/>
              <path class="cls-6" d="M1325.14,409.17c.09,0,.19-.01.28-.04,4.83-1.54,7.14-1.49,7.16-1.49.5.02.94-.39.95-.9.02-.51-.38-.94-.89-.95-.1,0-2.6-.07-7.79,1.58-.49.16-.76.68-.6,1.16.13.39.49.64.88.64Z"/>
              <path class="cls-11" d="M1261.78,345.05l-.98-.09s-.21-.01-.2-.02c.02-.06-.03.14.1-.44.32-1.46.8-4.35.55-7.73-.36-4.88-3.4-9-4.42-11.41-1.03-2.41-4.02.74-3.44,4.84.58,4.1.36,7.42.08,9.01,0,0-.35-5.01-1.74-8.08-.59-1.3-1.31-3.21-2.12-4.99-.4-.87-.82-1.7-1.26-2.42-.8-1.31-1.67-2.22-2.58-2.2-1.54.02-1.48,2.49-1.14,5.35.13,1.16.32,2.38.45,3.52.06.49.11.96.15,1.41.35,4.16,1.12,6.05.65,9.49,0,0-.86-4.09-2.26-6.2-.24-.35-.5-.77-.78-1.21-.51-.8-1.08-1.71-1.67-2.58-1.01-1.52-2.05-2.95-2.86-3.58-1.55-1.19-3.03,3.19-1.59,7.26.52,1.46,1.16,2.66,1.75,3.73.61,1.11,1.15,2.08,1.39,3.01.03.12.05.23.08.34.1.55.08,1.09-.09,1.66,0,0-.67-1.01-1.53-2.2,0,0,0,0-.01-.02-.05-.07-.1-.13-.15-.2-.55-.75-1.17-1.55-1.74-2.2-.98-1.12-3.45-2.62-5.4-3.1-1.13-.28-2.09-.22-2.47.46-.42.75.23,2.19,1.18,3.88,1.41,2.51,3.48,5.57,3.68,7.68.34,3.54,1.18,9.89,3.05,18.73,1.51,7.12,8.61,12.55,11.82,13.8.78.3,1.62.76,1.62.76,7.04-4.79,12.72-10.78,16.84-18.12,0,0,.72-1.74,1.45-3.98.71-2.17,1.42-4.8,1.51-6.77.04-.82-.06-1.57-.23-2.26-.23-.93-.91-1.64-1-2.4l-.35-2.03-6.34-.71Z"/>
            </g>
          </g>
          <g>
            <path class="cls-3" d="M1205.96,151.59h-58.87c-3.89,0-7.04,3.15-7.04,7.04v40.66c0,3.89,3.15,7.04,7.04,7.04h22.87l6.56,11.37,6.56-11.37h22.87c3.89,0,7.04-3.15,7.04-7.04v-40.66c0-3.89-3.15-7.04-7.04-7.04Z"/>
            <path class="cls-9" d="M1195.82,163.12c-5.33-5.33-13.97-5.33-19.3,0-5.33-5.33-13.97-5.33-19.3,0-5.33,5.33-5.33,13.97,0,19.3l19.3,19.3,19.3-19.3c5.33-5.33,5.33-13.97,0-19.3Z"/>
          </g>
        </g>
      </g>
    </g>
  </g>
</svg>